solid arena
facet normal 1.0 0.0 0.0
  outer loop
    vertex 2719.9999999999995 2269.999999999997 10.0
    vertex 2719.9999999999995 2259.9999999999977 310.0
    vertex 2719.9999999999995 2259.9999999999977 10.0
  endloop
endfacet
facet normal 1.0 0.0 0.0
  outer loop
    vertex 2719.9999999999995 2259.9999999999977 310.0
    vertex 2719.9999999999995 2269.999999999997 10.0
    vertex 2719.9999999999995 2269.999999999997 310.0
  endloop
endfacet
facet normal -1.0 -1.2633449841814718e-13 0.0
  outer loop
    vertex 0.0 2269.9999999999977 310.0
    vertex 1.263344984181458e-12 2259.9999999999977 10.0
    vertex 1.263344984181458e-12 2259.9999999999977 310.0
  endloop
endfacet
facet normal -1.0 -1.2633449841814718e-13 0.0
  outer loop
    vertex 1.263344984181458e-12 2259.9999999999977 10.0
    vertex 0.0 2269.9999999999977 310.0
    vertex 0.0 2269.9999999999977 10.0
  endloop
endfacet
facet normal 0.0 0.0 -1.0
  outer loop
    vertex 2719.9999999999995 2269.999999999997 10.0
    vertex 1.263344984181458e-12 2259.9999999999977 10.0
    vertex 0.0 2269.9999999999977 10.0
  endloop
endfacet
facet normal 0.0 0.0 -1.0
  outer loop
    vertex 1.263344984181458e-12 2259.9999999999977 10.0
    vertex 2719.9999999999995 2269.999999999997 10.0
    vertex 2719.9999999999995 2259.9999999999977 10.0
  endloop
endfacet
facet normal 2.6737459982676363e-16 1.0 -3.694203202485574e-32
  outer loop
    vertex 0.0 2269.9999999999977 310.0
    vertex 2719.9999999999995 2269.999999999997 10.0
    vertex 0.0 2269.9999999999977 10.0
  endloop
endfacet
facet normal 2.6737459982676363e-16 1.0 -3.694203202485574e-32
  outer loop
    vertex 2719.9999999999995 2269.999999999997 10.0
    vertex 0.0 2269.9999999999977 310.0
    vertex 2719.9999999999995 2269.999999999997 310.0
  endloop
endfacet
facet normal -1.6779272488198727e-17 -1.0296176157576274e-30 1.0
  outer loop
    vertex 1.263344984181458e-12 2259.9999999999977 310.0
    vertex 2719.9999999999995 2269.999999999997 310.0
    vertex 0.0 2269.9999999999977 310.0
  endloop
endfacet
facet normal -1.6779272488198727e-17 -1.0296176157576274e-30 1.0
  outer loop
    vertex 2719.9999999999995 2269.999999999997 310.0
    vertex 1.263344984181458e-12 2259.9999999999977 310.0
    vertex 2719.9999999999995 2259.9999999999977 310.0
  endloop
endfacet
facet normal 0.0 -1.0 0.0
  outer loop
    vertex 2719.9999999999995 2259.9999999999977 310.0
    vertex 1.263344984181458e-12 2259.9999999999977 10.0
    vertex 2719.9999999999995 2259.9999999999977 10.0
  endloop
endfacet
facet normal 0.0 -1.0 0.0
  outer loop
    vertex 1.263344984181458e-12 2259.9999999999977 10.0
    vertex 2719.9999999999995 2259.9999999999977 310.0
    vertex 1.263344984181458e-12 2259.9999999999977 310.0
  endloop
endfacet
endsolid arena
