solid arena
facet normal 0.0 0.0 -1.0
  outer loop
    vertex 2720.000000000001 2259.9999999999977 10.0
    vertex 2710.000000000001 9.999999999999892 10.0
    vertex 2710.000000000001 2259.9999999999977 10.0
  endloop
endfacet
facet normal 0.0 0.0 -1.0
  outer loop
    vertex 2710.000000000001 9.999999999999892 10.0
    vertex 2720.000000000001 2259.9999999999977 10.0
    vertex 2720.000000000001 9.999999999999892 10.0
  endloop
endfacet
facet normal 0.0 0.0 1.0
  outer loop
    vertex 2720.000000000001 9.999999999999892 310.0
    vertex 2710.000000000001 2259.9999999999977 310.0
    vertex 2710.000000000001 9.999999999999892 310.0
  endloop
endfacet
facet normal 0.0 0.0 1.0
  outer loop
    vertex 2710.000000000001 2259.9999999999977 310.0
    vertex 2720.000000000001 9.999999999999892 310.0
    vertex 2720.000000000001 2259.9999999999977 310.0
  endloop
endfacet
facet normal 0.0 -1.0 0.0
  outer loop
    vertex 2720.000000000001 9.999999999999892 310.0
    vertex 2710.000000000001 9.999999999999892 10.0
    vertex 2720.000000000001 9.999999999999892 10.0
  endloop
endfacet
facet normal 0.0 -1.0 0.0
  outer loop
    vertex 2710.000000000001 9.999999999999892 10.0
    vertex 2720.000000000001 9.999999999999892 310.0
    vertex 2710.000000000001 9.999999999999892 310.0
  endloop
endfacet
facet normal 0.0 1.0 0.0
  outer loop
    vertex 2710.000000000001 2259.9999999999977 310.0
    vertex 2720.000000000001 2259.9999999999977 10.0
    vertex 2710.000000000001 2259.9999999999977 10.0
  endloop
endfacet
facet normal 0.0 1.0 0.0
  outer loop
    vertex 2720.000000000001 2259.9999999999977 10.0
    vertex 2710.000000000001 2259.9999999999977 310.0
    vertex 2720.000000000001 2259.9999999999977 310.0
  endloop
endfacet
facet normal 1.0 0.0 0.0
  outer loop
    vertex 2720.000000000001 2259.9999999999977 10.0
    vertex 2720.000000000001 9.999999999999892 310.0
    vertex 2720.000000000001 9.999999999999892 10.0
  endloop
endfacet
facet normal 1.0 0.0 0.0
  outer loop
    vertex 2720.000000000001 9.999999999999892 310.0
    vertex 2720.000000000001 2259.9999999999977 10.0
    vertex 2720.000000000001 2259.9999999999977 310.0
  endloop
endfacet
facet normal -1.0 0.0 0.0
  outer loop
    vertex 2710.000000000001 2259.9999999999977 310.0
    vertex 2710.000000000001 9.999999999999892 10.0
    vertex 2710.000000000001 9.999999999999892 310.0
  endloop
endfacet
facet normal -1.0 0.0 0.0
  outer loop
    vertex 2710.000000000001 9.999999999999892 10.0
    vertex 2710.000000000001 2259.9999999999977 310.0
    vertex 2710.000000000001 2259.9999999999977 10.0
  endloop
endfacet
endsolid arena
