solid arena
facet normal -1.0 0.0 0.0
  outer loop
    vertex -0.9999999999986643 9.999999999999892 310.0
    vertex -0.9999999999986643 0.0 9.999999999999998
    vertex -0.9999999999986643 0.0 310.0
  endloop
endfacet
facet normal -1.0 0.0 0.0
  outer loop
    vertex -0.9999999999986643 0.0 9.999999999999998
    vertex -0.9999999999986643 9.999999999999892 310.0
    vertex -0.9999999999986643 9.999999999999892 10.0
  endloop
endfacet
facet normal 1.0 1.8047785488305436e-13 7.464475356983451e-32
  outer loop
    vertex 2720.000000000001 10.000000000001696 10.0
    vertex 2720.0000000000027 1.082867129298334e-12 310.0
    vertex 2720.0000000000027 1.082867129298334e-12 10.0
  endloop
endfacet
facet normal 1.0 1.8047785488305436e-13 7.464475356983451e-32
  outer loop
    vertex 2720.0000000000027 1.082867129298334e-12 310.0
    vertex 2720.000000000001 10.000000000001696 10.0
    vertex 2720.000000000001 10.000000000001696 310.0
  endloop
endfacet
facet normal 1.3069910451884447e-19 1.5805139243029551e-19 -1.0
  outer loop
    vertex 2720.000000000001 10.000000000001696 10.0
    vertex -0.9999999999986643 0.0 9.999999999999998
    vertex -0.9999999999986643 9.999999999999892 10.0
  endloop
endfacet
facet normal 1.3069910451884447e-19 1.5805139243029551e-19 -1.0
  outer loop
    vertex -0.9999999999986643 0.0 9.999999999999998
    vertex 2720.000000000001 10.000000000001696 10.0
    vertex 2720.0000000000027 1.082867129298334e-12 10.0
  endloop
endfacet
facet normal -8.358552004588513e-18 -2.255973186038343e-15 1.0
  outer loop
    vertex 2720.0000000000027 1.082867129298334e-12 310.0
    vertex -0.9999999999986643 9.999999999999892 310.0
    vertex -0.9999999999986643 0.0 310.0
  endloop
endfacet
facet normal -8.358552004588513e-18 -2.255973186038343e-15 1.0
  outer loop
    vertex -0.9999999999986643 9.999999999999892 310.0
    vertex 2720.0000000000027 1.082867129298334e-12 310.0
    vertex 2720.000000000001 10.000000000001696 310.0
  endloop
endfacet
facet normal 6.686841603670451e-17 1.0 -9.255691315807855e-33
  outer loop
    vertex -0.9999999999986643 9.999999999999892 310.0
    vertex 2720.000000000001 10.000000000001696 10.0
    vertex -0.9999999999986643 9.999999999999892 10.0
  endloop
endfacet
facet normal 6.686841603670451e-17 1.0 -9.255691315807855e-33
  outer loop
    vertex 2720.000000000001 10.000000000001696 10.0
    vertex -0.9999999999986643 9.999999999999892 310.0
    vertex 2720.000000000001 10.000000000001696 310.0
  endloop
endfacet
facet normal -3.343420801834989e-16 -1.0 0.0
  outer loop
    vertex 2720.0000000000027 1.082867129298334e-12 10.0
    vertex -0.9999999999986643 0.0 310.0
    vertex -0.9999999999986643 0.0 9.999999999999998
  endloop
endfacet
facet normal -3.343420801834989e-16 -1.0 0.0
  outer loop
    vertex -0.9999999999986643 0.0 310.0
    vertex 2720.0000000000027 1.082867129298334e-12 10.0
    vertex 2720.0000000000027 1.082867129298334e-12 310.0
  endloop
endfacet
endsolid arena
