solid arena
facet normal 0.0 -1.0 0.0
  outer loop
    vertex 10.000000000001336 10.999999999999892 310.0
    vertex 1.263344984181458e-12 10.999999999999892 10.0
    vertex 10.000000000001336 10.999999999999892 10.0
  endloop
endfacet
facet normal 0.0 -1.0 0.0
  outer loop
    vertex 1.263344984181458e-12 10.999999999999892 10.0
    vertex 10.000000000001336 10.999999999999892 310.0
    vertex 1.263344984181458e-12 10.999999999999892 310.0
  endloop
endfacet
facet normal 0.0 0.0 -1.0
  outer loop
    vertex 10.000000000001336 2259.9999999999977 10.0
    vertex 1.263344984181458e-12 10.999999999999892 10.0
    vertex 1.263344984181458e-12 2259.9999999999977 10.0
  endloop
endfacet
facet normal 0.0 0.0 -1.0
  outer loop
    vertex 1.263344984181458e-12 10.999999999999892 10.0
    vertex 10.000000000001336 2259.9999999999977 10.0
    vertex 10.000000000001336 10.999999999999892 10.0
  endloop
endfacet
facet normal 0.0 1.0 0.0
  outer loop
    vertex 1.263344984181458e-12 2259.9999999999977 310.0
    vertex 10.000000000001336 2259.9999999999977 10.0
    vertex 1.263344984181458e-12 2259.9999999999977 10.0
  endloop
endfacet
facet normal 0.0 1.0 0.0
  outer loop
    vertex 10.000000000001336 2259.9999999999977 10.0
    vertex 1.263344984181458e-12 2259.9999999999977 310.0
    vertex 10.000000000001336 2259.9999999999977 310.0
  endloop
endfacet
facet normal 1.0 0.0 0.0
  outer loop
    vertex 10.000000000001336 2259.9999999999977 10.0
    vertex 10.000000000001336 10.999999999999892 310.0
    vertex 10.000000000001336 10.999999999999892 10.0
  endloop
endfacet
facet normal 1.0 0.0 0.0
  outer loop
    vertex 10.000000000001336 10.999999999999892 310.0
    vertex 10.000000000001336 2259.9999999999977 10.0
    vertex 10.000000000001336 2259.9999999999977 310.0
  endloop
endfacet
facet normal 0.0 0.0 1.0
  outer loop
    vertex 10.000000000001336 10.999999999999892 310.0
    vertex 1.263344984181458e-12 2259.9999999999977 310.0
    vertex 1.263344984181458e-12 10.999999999999892 310.0
  endloop
endfacet
facet normal 0.0 0.0 1.0
  outer loop
    vertex 1.263344984181458e-12 2259.9999999999977 310.0
    vertex 10.000000000001336 10.999999999999892 310.0
    vertex 10.000000000001336 2259.9999999999977 310.0
  endloop
endfacet
facet normal -1.0 0.0 0.0
  outer loop
    vertex 1.263344984181458e-12 2259.9999999999977 310.0
    vertex 1.263344984181458e-12 10.999999999999892 10.0
    vertex 1.263344984181458e-12 10.999999999999892 310.0
  endloop
endfacet
facet normal -1.0 0.0 0.0
  outer loop
    vertex 1.263344984181458e-12 10.999999999999892 10.0
    vertex 1.263344984181458e-12 2259.9999999999977 310.0
    vertex 1.263344984181458e-12 2259.9999999999977 10.0
  endloop
endfacet
endsolid arena
