solid arena
facet normal -1.0 0.0 0.0
  outer loop
    vertex 10.000000000001336 1742.2853007585893 229.99999999999997
    vertex 10.000000000001336 1642.2853007585888 10.0
    vertex 10.000000000001336 1642.2853007585888 229.99999999999997
  endloop
endfacet
facet normal -1.0 0.0 0.0
  outer loop
    vertex 10.000000000001336 1642.2853007585888 10.0
    vertex 10.000000000001336 1742.2853007585893 229.99999999999997
    vertex 10.000000000001336 1742.2853007585893 10.0
  endloop
endfacet
facet normal 0.0 -1.0 0.0
  outer loop
    vertex 410.0000000000013 1642.2853007585886 229.99999999999997
    vertex 10.000000000001336 1642.2853007585888 10.0
    vertex 410.0000000000013 1642.2853007585886 10.0
  endloop
endfacet
facet normal 0.0 -1.0 0.0
  outer loop
    vertex 10.000000000001336 1642.2853007585888 10.0
    vertex 410.0000000000013 1642.2853007585886 229.99999999999997
    vertex 10.000000000001336 1642.2853007585888 229.99999999999997
  endloop
endfacet
facet normal 0.0 1.0 0.0
  outer loop
    vertex 10.000000000001336 1742.2853007585893 229.99999999999997
    vertex 410.0000000000013 1742.2853007585888 10.0
    vertex 10.000000000001336 1742.2853007585893 10.0
  endloop
endfacet
facet normal 0.0 1.0 0.0
  outer loop
    vertex 410.0000000000013 1742.2853007585888 10.0
    vertex 10.000000000001336 1742.2853007585893 229.99999999999997
    vertex 410.0000000000013 1742.2853007585888 229.99999999999997
  endloop
endfacet
facet normal 0.0 0.0 -1.0
  outer loop
    vertex 410.0000000000013 1742.2853007585888 10.0
    vertex 10.000000000001336 1642.2853007585888 10.0
    vertex 10.000000000001336 1742.2853007585893 10.0
  endloop
endfacet
facet normal 0.0 0.0 -1.0
  outer loop
    vertex 10.000000000001336 1642.2853007585888 10.0
    vertex 410.0000000000013 1742.2853007585888 10.0
    vertex 410.0000000000013 1642.2853007585886 10.0
  endloop
endfacet
facet normal 1.0 0.0 0.0
  outer loop
    vertex 410.0000000000013 1742.2853007585888 10.0
    vertex 410.0000000000013 1642.2853007585886 229.99999999999997
    vertex 410.0000000000013 1642.2853007585886 10.0
  endloop
endfacet
facet normal 1.0 0.0 0.0
  outer loop
    vertex 410.0000000000013 1642.2853007585886 229.99999999999997
    vertex 410.0000000000013 1742.2853007585888 10.0
    vertex 410.0000000000013 1742.2853007585888 229.99999999999997
  endloop
endfacet
facet normal 0.0 0.0 1.0
  outer loop
    vertex 410.0000000000013 1642.2853007585886 229.99999999999997
    vertex 10.000000000001336 1742.2853007585893 229.99999999999997
    vertex 10.000000000001336 1642.2853007585888 229.99999999999997
  endloop
endfacet
facet normal 0.0 0.0 1.0
  outer loop
    vertex 10.000000000001336 1742.2853007585893 229.99999999999997
    vertex 410.0000000000013 1642.2853007585886 229.99999999999997
    vertex 410.0000000000013 1742.2853007585888 229.99999999999997
  endloop
endfacet
endsolid arena
