solid arena
facet normal 0.0 0.0 1.0
  outer loop
    vertex 2054.1138911227376 1859.999999999998 229.99999999999997
    vertex 1954.1138911227376 2259.9999999999977 229.99999999999997
    vertex 1954.1138911227372 1859.999999999998 229.99999999999997
  endloop
endfacet
facet normal 0.0 0.0 1.0
  outer loop
    vertex 1954.1138911227376 2259.9999999999977 229.99999999999997
    vertex 2054.1138911227376 1859.999999999998 229.99999999999997
    vertex 2054.113891122738 2259.9999999999977 229.99999999999997
  endloop
endfacet
facet normal -1.0 9.023892744153272e-16 0.0
  outer loop
    vertex 1954.1138911227376 2259.9999999999977 229.99999999999997
    vertex 1954.1138911227372 1859.999999999998 10.0
    vertex 1954.1138911227372 1859.999999999998 229.99999999999997
  endloop
endfacet
facet normal -1.0 9.023892744153272e-16 0.0
  outer loop
    vertex 1954.1138911227372 1859.999999999998 10.0
    vertex 1954.1138911227376 2259.9999999999977 229.99999999999997
    vertex 1954.1138911227376 2259.9999999999977 10.0
  endloop
endfacet
facet normal -1.0 0.0 0.0
  outer loop
    vertex 1954.1138911227372 1859.999999999998 229.99999999999997
    vertex 1954.1138911227372 1459.999999999998 10.0
    vertex 1954.1138911227372 1459.999999999998 229.99999999999997
  endloop
endfacet
facet normal -1.0 0.0 0.0
  outer loop
    vertex 1954.1138911227372 1459.999999999998 10.0
    vertex 1954.1138911227372 1859.999999999998 229.99999999999997
    vertex 1954.1138911227372 1859.999999999998 10.0
  endloop
endfacet
facet normal -4.0592529337857276e-16 1.0 0.0
  outer loop
    vertex 1954.1138911227376 2259.9999999999977 229.99999999999997
    vertex 2054.113891122738 2259.9999999999977 10.0
    vertex 1954.1138911227376 2259.9999999999977 10.0
  endloop
endfacet
facet normal -4.0592529337857276e-16 1.0 0.0
  outer loop
    vertex 2054.113891122738 2259.9999999999977 10.0
    vertex 1954.1138911227376 2259.9999999999977 229.99999999999997
    vertex 2054.113891122738 2259.9999999999977 229.99999999999997
  endloop
endfacet
facet normal 1.0 -9.023892744153272e-16 0.0
  outer loop
    vertex 2054.113891122738 2259.9999999999977 10.0
    vertex 2054.1138911227376 1859.999999999998 229.99999999999997
    vertex 2054.1138911227376 1859.999999999998 10.0
  endloop
endfacet
facet normal 1.0 -9.023892744153272e-16 0.0
  outer loop
    vertex 2054.1138911227376 1859.999999999998 229.99999999999997
    vertex 2054.113891122738 2259.9999999999977 10.0
    vertex 2054.113891122738 2259.9999999999977 229.99999999999997
  endloop
endfacet
facet normal 0.0 0.0 -1.0
  outer loop
    vertex 2054.1138911227376 1859.999999999998 10.0
    vertex 1954.1138911227372 1459.999999999998 10.0
    vertex 1954.1138911227372 1859.999999999998 10.0
  endloop
endfacet
facet normal 0.0 0.0 -1.0
  outer loop
    vertex 1954.1138911227372 1459.999999999998 10.0
    vertex 2054.1138911227376 1859.999999999998 10.0
    vertex 2054.1138911227376 1459.999999999998 10.0
  endloop
endfacet
facet normal 4.0592529337857276e-16 -1.0 0.0
  outer loop
    vertex 2054.1138911227376 1459.999999999998 229.99999999999997
    vertex 1954.1138911227372 1459.999999999998 10.0
    vertex 2054.1138911227376 1459.999999999998 10.0
  endloop
endfacet
facet normal 4.0592529337857276e-16 -1.0 0.0
  outer loop
    vertex 1954.1138911227372 1459.999999999998 10.0
    vertex 2054.1138911227376 1459.999999999998 229.99999999999997
    vertex 1954.1138911227372 1459.999999999998 229.99999999999997
  endloop
endfacet
facet normal 1.0 0.0 0.0
  outer loop
    vertex 2054.1138911227376 1859.999999999998 10.0
    vertex 2054.1138911227376 1459.999999999998 229.99999999999997
    vertex 2054.1138911227376 1459.999999999998 10.0
  endloop
endfacet
facet normal 1.0 0.0 0.0
  outer loop
    vertex 2054.1138911227376 1459.999999999998 229.99999999999997
    vertex 2054.1138911227376 1859.999999999998 10.0
    vertex 2054.1138911227376 1859.999999999998 229.99999999999997
  endloop
endfacet
facet normal 0.0 0.0 -1.0
  outer loop
    vertex 1954.1138911227376 2259.9999999999977 10.0
    vertex 2054.1138911227376 1859.999999999998 10.0
    vertex 1954.1138911227372 1859.999999999998 10.0
  endloop
endfacet
facet normal 0.0 0.0 -1.0
  outer loop
    vertex 2054.1138911227376 1859.999999999998 10.0
    vertex 1954.1138911227376 2259.9999999999977 10.0
    vertex 2054.113891122738 2259.9999999999977 10.0
  endloop
endfacet
facet normal 0.0 1.0 0.0
  outer loop
    vertex 1954.1138911227372 1859.999999999998 229.99999999999997
    vertex 2054.1138911227376 1859.999999999998 10.0
    vertex 1954.1138911227372 1859.999999999998 10.0
  endloop
endfacet
facet normal 0.0 1.0 0.0
  outer loop
    vertex 2054.1138911227376 1859.999999999998 10.0
    vertex 1954.1138911227372 1859.999999999998 229.99999999999997
    vertex 2054.1138911227376 1859.999999999998 229.99999999999997
  endloop
endfacet
facet normal 0.0 0.0 1.0
  outer loop
    vertex 2054.1138911227376 1459.999999999998 229.99999999999997
    vertex 1954.1138911227372 1859.999999999998 229.99999999999997
    vertex 1954.1138911227372 1459.999999999998 229.99999999999997
  endloop
endfacet
facet normal 0.0 0.0 1.0
  outer loop
    vertex 1954.1138911227372 1859.999999999998 229.99999999999997
    vertex 2054.1138911227376 1459.999999999998 229.99999999999997
    vertex 2054.1138911227376 1859.999999999998 229.99999999999997
  endloop
endfacet
endsolid arena
