solid arena
facet normal 0.0 0.0 -1.0
  outer loop
    vertex 510.00000000000114 409.9999999999999 10.0
    vertex 610.0000000000014 9.999999999999892 10.0
    vertex 510.00000000000097 9.99999999999985 10.0
  endloop
endfacet
facet normal 0.0 0.0 -1.0
  outer loop
    vertex 610.0000000000014 9.999999999999892 10.0
    vertex 510.00000000000114 409.9999999999999 10.0
    vertex 610.0000000000015 409.9999999999999 10.0
  endloop
endfacet
facet normal 4.0592529337857276e-16 -1.0 0.0
  outer loop
    vertex 610.0000000000014 9.999999999999892 229.99999999999997
    vertex 510.00000000000097 9.99999999999985 10.0
    vertex 610.0000000000014 9.999999999999892 10.0
  endloop
endfacet
facet normal 4.0592529337857276e-16 -1.0 0.0
  outer loop
    vertex 510.00000000000097 9.99999999999985 10.0
    vertex 610.0000000000014 9.999999999999892 229.99999999999997
    vertex 510.00000000000097 9.99999999999985 229.99999999999997
  endloop
endfacet
facet normal 1.0 4.0592529337857276e-16 0.0
  outer loop
    vertex 610.0000000000015 409.9999999999999 10.0
    vertex 610.0000000000014 9.999999999999892 229.99999999999997
    vertex 610.0000000000014 9.999999999999892 10.0
  endloop
endfacet
facet normal 1.0 4.0592529337857276e-16 0.0
  outer loop
    vertex 610.0000000000014 9.999999999999892 229.99999999999997
    vertex 610.0000000000015 409.9999999999999 10.0
    vertex 610.0000000000015 409.9999999999999 229.99999999999997
  endloop
endfacet
facet normal -4.0592529337857276e-16 1.0 0.0
  outer loop
    vertex 510.00000000000114 409.9999999999999 229.99999999999997
    vertex 610.0000000000015 409.9999999999999 10.0
    vertex 510.00000000000114 409.9999999999999 10.0
  endloop
endfacet
facet normal -4.0592529337857276e-16 1.0 0.0
  outer loop
    vertex 610.0000000000015 409.9999999999999 10.0
    vertex 510.00000000000114 409.9999999999999 229.99999999999997
    vertex 610.0000000000015 409.9999999999999 229.99999999999997
  endloop
endfacet
facet normal 0.0 0.0 1.0
  outer loop
    vertex 610.0000000000014 9.999999999999892 229.99999999999997
    vertex 510.00000000000114 409.9999999999999 229.99999999999997
    vertex 510.00000000000097 9.99999999999985 229.99999999999997
  endloop
endfacet
facet normal 0.0 0.0 1.0
  outer loop
    vertex 510.00000000000114 409.9999999999999 229.99999999999997
    vertex 610.0000000000014 9.999999999999892 229.99999999999997
    vertex 610.0000000000015 409.9999999999999 229.99999999999997
  endloop
endfacet
facet normal -1.0 -4.0592529337857276e-16 0.0
  outer loop
    vertex 510.00000000000114 409.9999999999999 229.99999999999997
    vertex 510.00000000000097 9.99999999999985 10.0
    vertex 510.00000000000097 9.99999999999985 229.99999999999997
  endloop
endfacet
facet normal -1.0 -4.0592529337857276e-16 0.0
  outer loop
    vertex 510.00000000000097 9.99999999999985 10.0
    vertex 510.00000000000114 409.9999999999999 229.99999999999997
    vertex 510.00000000000114 409.9999999999999 10.0
  endloop
endfacet
endsolid arena
