solid arena
facet normal 0.7782019634671986 -0.5971353686665811 -0.1945020707941778
  outer loop
    vertex 1479.2820323027563 107.13773099999845 10.0
    vertex 1513.9230484541351 87.13773099999506 209.99999999999997
    vertex 1494.8528137423862 62.28491725760596 209.99999999999997
  endloop
endfacet
facet normal 0.9914448613738085 -0.1305261922200673 0.0
  outer loop
    vertex 1424.9999999999998 147.1377309999951 29.999999999999986
    vertex 1424.4888873943357 143.25544532345765 269.99999999999994
    vertex 1424.4888873943357 143.25544532345765 29.999999999999986
  endloop
endfacet
facet normal 0.9914448613738085 -0.1305261922200673 0.0
  outer loop
    vertex 1424.4888873943357 143.25544532345765 269.99999999999994
    vertex 1424.9999999999998 147.1377309999951 29.999999999999986
    vertex 1424.9999999999998 147.1377309999951 269.99999999999994
  endloop
endfacet
facet normal 0.37537498530422914 -0.9062353804970497 -0.19450207079416357
  outer loop
    vertex 1470.000000000001 43.21468254586563 209.99999999999997
    vertex 1430.7055236082028 69.86366489687279 10.0
    vertex 1450.0000000000011 77.85569869724333 10.0
  endloop
endfacet
facet normal 0.0 0.0 1.0
  outer loop
    vertex 1395.511112605664 143.25544532345765 269.99999999999994
    vertex 1395.511112605664 151.0200166765326 269.99999999999994
    vertex 1395.0 147.1377309999951 269.99999999999994
  endloop
endfacet
facet normal 0.0 0.0 1.0
  outer loop
    vertex 1395.511112605664 151.0200166765326 269.99999999999994
    vertex 1395.511112605664 143.25544532345765 269.99999999999994
    vertex 1397.0096189432334 139.6377309999954 269.99999999999994
  endloop
endfacet
facet normal 0.0 0.0 1.0
  outer loop
    vertex 1395.511112605664 151.0200166765326 269.99999999999994
    vertex 1397.0096189432334 139.6377309999954 269.99999999999994
    vertex 1397.0096189432334 154.63773099999486 269.99999999999994
  endloop
endfacet
facet normal 0.0 0.0 1.0
  outer loop
    vertex 1397.0096189432334 154.63773099999486 269.99999999999994
    vertex 1397.0096189432334 139.6377309999954 269.99999999999994
    vertex 1399.3933982822018 136.5311292821971 269.99999999999994
  endloop
endfacet
facet normal 0.0 0.0 1.0
  outer loop
    vertex 1397.0096189432334 154.63773099999486 269.99999999999994
    vertex 1399.3933982822018 136.5311292821971 269.99999999999994
    vertex 1399.3933982822018 157.74433271779313 269.99999999999994
  endloop
endfacet
facet normal 0.0 0.0 1.0
  outer loop
    vertex 1399.3933982822018 157.74433271779313 269.99999999999994
    vertex 1399.3933982822018 136.5311292821971 269.99999999999994
    vertex 1402.5000000000002 134.14734994322893 269.99999999999994
  endloop
endfacet
facet normal 0.0 0.0 1.0
  outer loop
    vertex 1399.3933982822018 157.74433271779313 269.99999999999994
    vertex 1402.5000000000002 134.14734994322893 269.99999999999994
    vertex 1402.4999999999998 160.12811205676132 269.99999999999994
  endloop
endfacet
facet normal 0.0 0.0 1.0
  outer loop
    vertex 1402.4999999999998 160.12811205676132 269.99999999999994
    vertex 1402.5000000000002 134.14734994322893 269.99999999999994
    vertex 1406.117714323462 161.62661839433133 269.99999999999994
  endloop
endfacet
facet normal 0.0 0.0 1.0
  outer loop
    vertex 1406.117714323462 161.62661839433133 269.99999999999994
    vertex 1402.5000000000002 134.14734994322893 269.99999999999994
    vertex 1406.117714323462 132.64884360565893 269.99999999999994
  endloop
endfacet
facet normal 0.0 0.0 1.0
  outer loop
    vertex 1406.117714323462 161.62661839433133 269.99999999999994
    vertex 1406.117714323462 132.64884360565893 269.99999999999994
    vertex 1409.9999999999998 132.13773099999565 269.99999999999994
  endloop
endfacet
facet normal 0.0 0.0 1.0
  outer loop
    vertex 1406.117714323462 161.62661839433133 269.99999999999994
    vertex 1409.9999999999998 132.13773099999565 269.99999999999994
    vertex 1409.9999999999998 162.1377309999946 269.99999999999994
  endloop
endfacet
facet normal 0.0 0.0 1.0
  outer loop
    vertex 1409.9999999999998 162.1377309999946 269.99999999999994
    vertex 1409.9999999999998 132.13773099999565 269.99999999999994
    vertex 1413.8822856765378 132.64884360565893 269.99999999999994
  endloop
endfacet
facet normal 0.0 0.0 1.0
  outer loop
    vertex 1409.9999999999998 162.1377309999946 269.99999999999994
    vertex 1413.8822856765378 132.64884360565893 269.99999999999994
    vertex 1413.8822856765378 161.62661839433133 269.99999999999994
  endloop
endfacet
facet normal 0.0 0.0 1.0
  outer loop
    vertex 1413.8822856765378 161.62661839433133 269.99999999999994
    vertex 1413.8822856765378 132.64884360565893 269.99999999999994
    vertex 1417.5 134.14734994322893 269.99999999999994
  endloop
endfacet
facet normal 0.0 0.0 1.0
  outer loop
    vertex 1413.8822856765378 161.62661839433133 269.99999999999994
    vertex 1417.5 134.14734994322893 269.99999999999994
    vertex 1417.4999999999995 160.12811205676132 269.99999999999994
  endloop
endfacet
facet normal 0.0 0.0 1.0
  outer loop
    vertex 1417.4999999999995 160.12811205676132 269.99999999999994
    vertex 1417.5 134.14734994322893 269.99999999999994
    vertex 1420.606601717798 157.74433271779313 269.99999999999994
  endloop
endfacet
facet normal 0.0 0.0 1.0
  outer loop
    vertex 1420.606601717798 157.74433271779313 269.99999999999994
    vertex 1417.5 134.14734994322893 269.99999999999994
    vertex 1420.606601717798 136.5311292821971 269.99999999999994
  endloop
endfacet
facet normal 0.0 0.0 1.0
  outer loop
    vertex 1420.606601717798 157.74433271779313 269.99999999999994
    vertex 1420.606601717798 136.5311292821971 269.99999999999994
    vertex 1422.9903810567664 139.6377309999954 269.99999999999994
  endloop
endfacet
facet normal 0.0 0.0 1.0
  outer loop
    vertex 1420.606601717798 157.74433271779313 269.99999999999994
    vertex 1422.9903810567664 139.6377309999954 269.99999999999994
    vertex 1422.9903810567664 154.63773099999486 269.99999999999994
  endloop
endfacet
facet normal 0.0 0.0 1.0
  outer loop
    vertex 1422.9903810567664 154.63773099999486 269.99999999999994
    vertex 1422.9903810567664 139.6377309999954 269.99999999999994
    vertex 1424.4888873943357 143.25544532345765 269.99999999999994
  endloop
endfacet
facet normal 0.0 0.0 1.0
  outer loop
    vertex 1422.9903810567664 154.63773099999486 269.99999999999994
    vertex 1424.4888873943357 143.25544532345765 269.99999999999994
    vertex 1424.4888873943357 151.0200166765326 269.99999999999994
  endloop
endfacet
facet normal 0.0 0.0 1.0
  outer loop
    vertex 1424.4888873943357 151.0200166765326 269.99999999999994
    vertex 1424.4888873943357 143.25544532345765 269.99999999999994
    vertex 1424.9999999999998 147.1377309999951 269.99999999999994
  endloop
endfacet
facet normal -0.37537498530418373 0.9062353804970692 -0.19450207079415927
  outer loop
    vertex 1378.9417145876969 263.048830154684 209.99999999999997
    vertex 1389.2944763917997 224.41179710312323 10.0
    vertex 1350.0000000000005 251.0607794541304 209.99999999999997
  endloop
endfacet
facet normal 0.6087614290086819 0.7933533402912651 0.0
  outer loop
    vertex 1417.4999999999995 160.12811205676132 269.99999999999994
    vertex 1420.606601717798 157.74433271779313 29.999999999999986
    vertex 1417.4999999999995 160.12811205676132 29.999999999999986
  endloop
endfacet
facet normal 0.6087614290086819 0.7933533402912651 0.0
  outer loop
    vertex 1420.606601717798 157.74433271779313 29.999999999999986
    vertex 1417.4999999999995 160.12811205676132 269.99999999999994
    vertex 1420.606601717798 157.74433271779313 269.99999999999994
  endloop
endfacet
facet normal -0.5971353686666047 0.7782019634671835 -0.19450207079416576
  outer loop
    vertex 1350.0000000000005 251.0607794541304 209.99999999999997
    vertex 1370.0000000000014 216.4197633027527 10.0
    vertex 1325.147186257613 231.9905447423814 209.99999999999997
  endloop
endfacet
facet normal 0.12803341702995308 0.9725103539708044 -0.19450207079415555
  outer loop
    vertex 1441.0582854123024 263.048830154684 209.99999999999997
    vertex 1430.7055236082028 224.41179710312323 10.0
    vertex 1409.9999999999998 267.1377309999989 209.99999999999997
  endloop
endfacet
facet normal 0.38268343236524016 0.9238795325112247 0.0
  outer loop
    vertex 1413.8822856765378 161.62661839433133 269.99999999999994
    vertex 1417.4999999999995 160.12811205676132 29.999999999999986
    vertex 1413.8822856765378 161.62661839433133 29.999999999999986
  endloop
endfacet
facet normal 0.38268343236524016 0.9238795325112247 0.0
  outer loop
    vertex 1417.4999999999995 160.12811205676132 29.999999999999986
    vertex 1413.8822856765378 161.62661839433133 269.99999999999994
    vertex 1417.4999999999995 160.12811205676132 269.99999999999994
  endloop
endfacet
facet normal 0.5971353686665809 0.7782019634672025 -0.19450207079416346
  outer loop
    vertex 1470.000000000001 251.0607794541304 209.99999999999997
    vertex 1466.568542494925 203.70627349492196 10.0
    vertex 1450.0000000000011 216.4197633027527 10.0
  endloop
endfacet
facet normal -0.37537498530422675 -0.9062353804970442 -0.19450207079419263
  outer loop
    vertex 1378.9417145876969 31.22663184530404 209.99999999999997
    vertex 1370.0000000000014 77.85569869724333 10.0
    vertex 1389.2944763917997 69.86366489687279 10.0
  endloop
endfacet
facet normal -0.13052619221987416 0.9914448613738339 0.0
  outer loop
    vertex 1406.117714323462 161.62661839433133 269.99999999999994
    vertex 1409.9999999999998 162.1377309999946 29.999999999999986
    vertex 1406.117714323462 161.62661839433133 29.999999999999986
  endloop
endfacet
facet normal -0.13052619221987416 0.9914448613738339 0.0
  outer loop
    vertex 1409.9999999999998 162.1377309999946 29.999999999999986
    vertex 1406.117714323462 161.62661839433133 269.99999999999994
    vertex 1409.9999999999998 162.1377309999946 269.99999999999994
  endloop
endfacet
facet normal 0.9725103539708169 0.1280334170298673 -0.1945020707941506
  outer loop
    vertex 1487.2740661031264 167.8432546081993 10.0
    vertex 1529.9999999999989 147.1377309999951 209.99999999999997
    vertex 1490.0000000000011 147.137730999998 10.0
  endloop
endfacet
facet normal -0.5971353686665808 -0.7782019634672016 -0.1945020707941665
  outer loop
    vertex 1350.0000000000005 43.21468254586563 209.99999999999997
    vertex 1353.4314575050778 90.56918850507407 10.0
    vertex 1370.0000000000014 77.85569869724333 10.0
  endloop
endfacet
facet normal -0.9725103539708114 -0.1280334170298622 -0.1945020707941814
  outer loop
    vertex 1330.0000000000014 147.137730999998 10.0
    vertex 1332.725933896876 126.43220739179601 10.0
    vertex 1289.999999999998 147.1377309999951 209.99999999999997
  endloop
endfacet
facet normal -0.38268343236524016 -0.9238795325112247 -0.0
  outer loop
    vertex 1406.117714323462 132.64884360565893 269.99999999999994
    vertex 1402.5000000000002 134.14734994322893 29.999999999999986
    vertex 1406.117714323462 132.64884360565893 29.999999999999986
  endloop
endfacet
facet normal -0.38268343236524016 -0.9238795325112247 -0.0
  outer loop
    vertex 1402.5000000000002 134.14734994322893 29.999999999999986
    vertex 1406.117714323462 132.64884360565893 269.99999999999994
    vertex 1402.5000000000002 134.14734994322893 269.99999999999994
  endloop
endfacet
facet normal 0.38268343236520747 -0.923879532511238 0.0
  outer loop
    vertex 1417.5 134.14734994322893 269.99999999999994
    vertex 1413.8822856765378 132.64884360565893 29.999999999999986
    vertex 1417.5 134.14734994322893 29.999999999999986
  endloop
endfacet
facet normal 0.38268343236520747 -0.923879532511238 0.0
  outer loop
    vertex 1413.8822856765378 132.64884360565893 29.999999999999986
    vertex 1417.5 134.14734994322893 269.99999999999994
    vertex 1413.8822856765378 132.64884360565893 269.99999999999994
  endloop
endfacet
facet normal 0.9238795325113033 -0.3826834323650502 0.0
  outer loop
    vertex 1424.4888873943357 143.25544532345765 29.999999999999986
    vertex 1422.9903810567664 139.6377309999954 269.99999999999994
    vertex 1422.9903810567664 139.6377309999954 29.999999999999986
  endloop
endfacet
facet normal 0.9238795325113033 -0.3826834323650502 0.0
  outer loop
    vertex 1422.9903810567664 139.6377309999954 269.99999999999994
    vertex 1424.4888873943357 143.25544532345765 29.999999999999986
    vertex 1424.4888873943357 143.25544532345765 269.99999999999994
  endloop
endfacet
facet normal 0.7782019634671962 -0.5971353686665841 -0.19450207079417822
  outer loop
    vertex 1479.2820323027563 107.13773099999845 10.0
    vertex 1494.8528137423862 62.28491725760596 209.99999999999997
    vertex 1466.568542494925 90.56918850507407 10.0
  endloop
endfacet
facet normal 0.7933533402912204 -0.6087614290087399 0.0
  outer loop
    vertex 1422.9903810567664 139.6377309999954 29.999999999999986
    vertex 1420.606601717798 136.5311292821971 269.99999999999994
    vertex 1420.606601717798 136.5311292821971 29.999999999999986
  endloop
endfacet
facet normal 0.7933533402912204 -0.6087614290087399 0.0
  outer loop
    vertex 1420.606601717798 136.5311292821971 269.99999999999994
    vertex 1422.9903810567664 139.6377309999954 29.999999999999986
    vertex 1422.9903810567664 139.6377309999954 269.99999999999994
  endloop
endfacet
facet normal -0.6087614290087264 0.793353340291231 0.0
  outer loop
    vertex 1399.3933982822018 157.74433271779313 269.99999999999994
    vertex 1402.4999999999998 160.12811205676132 29.999999999999986
    vertex 1399.3933982822018 157.74433271779313 29.999999999999986
  endloop
endfacet
facet normal -0.6087614290087264 0.793353340291231 0.0
  outer loop
    vertex 1402.4999999999998 160.12811205676132 29.999999999999986
    vertex 1399.3933982822018 157.74433271779313 269.99999999999994
    vertex 1402.4999999999998 160.12811205676132 269.99999999999994
  endloop
endfacet
facet normal 0.9238795325113033 0.3826834323650502 0.0
  outer loop
    vertex 1422.9903810567664 154.63773099999486 29.999999999999986
    vertex 1424.4888873943357 151.0200166765326 269.99999999999994
    vertex 1424.4888873943357 151.0200166765326 29.999999999999986
  endloop
endfacet
facet normal 0.9238795325113033 0.3826834323650502 0.0
  outer loop
    vertex 1424.4888873943357 151.0200166765326 269.99999999999994
    vertex 1422.9903810567664 154.63773099999486 29.999999999999986
    vertex 1422.9903810567664 154.63773099999486 269.99999999999994
  endloop
endfacet
facet normal 0.9914448613738085 0.1305261922200673 0.0
  outer loop
    vertex 1424.4888873943357 151.0200166765326 29.999999999999986
    vertex 1424.9999999999998 147.1377309999951 269.99999999999994
    vertex 1424.9999999999998 147.1377309999951 29.999999999999986
  endloop
endfacet
facet normal 0.9914448613738085 0.1305261922200673 0.0
  outer loop
    vertex 1424.9999999999998 147.1377309999951 269.99999999999994
    vertex 1424.4888873943357 151.0200166765326 29.999999999999986
    vertex 1424.4888873943357 151.0200166765326 269.99999999999994
  endloop
endfacet
facet normal 0.6087614290087264 -0.793353340291231 0.0
  outer loop
    vertex 1420.606601717798 136.5311292821971 269.99999999999994
    vertex 1417.5 134.14734994322893 29.999999999999986
    vertex 1420.606601717798 136.5311292821971 29.999999999999986
  endloop
endfacet
facet normal 0.6087614290087264 -0.793353340291231 0.0
  outer loop
    vertex 1417.5 134.14734994322893 29.999999999999986
    vertex 1420.606601717798 136.5311292821971 269.99999999999994
    vertex 1417.5 134.14734994322893 269.99999999999994
  endloop
endfacet
facet normal -0.38268343236520747 0.923879532511238 0.0
  outer loop
    vertex 1402.4999999999998 160.12811205676132 269.99999999999994
    vertex 1406.117714323462 161.62661839433133 29.999999999999986
    vertex 1402.4999999999998 160.12811205676132 29.999999999999986
  endloop
endfacet
facet normal -0.38268343236520747 0.923879532511238 0.0
  outer loop
    vertex 1406.117714323462 161.62661839433133 29.999999999999986
    vertex 1402.4999999999998 160.12811205676132 269.99999999999994
    vertex 1406.117714323462 161.62661839433133 269.99999999999994
  endloop
endfacet
facet normal 0.13052619221987416 0.9914448613738339 0.0
  outer loop
    vertex 1409.9999999999998 162.1377309999946 269.99999999999994
    vertex 1413.8822856765378 161.62661839433133 29.999999999999986
    vertex 1409.9999999999998 162.1377309999946 29.999999999999986
  endloop
endfacet
facet normal 0.13052619221987416 0.9914448613738339 0.0
  outer loop
    vertex 1413.8822856765378 161.62661839433133 29.999999999999986
    vertex 1409.9999999999998 162.1377309999946 269.99999999999994
    vertex 1413.8822856765378 161.62661839433133 269.99999999999994
  endloop
endfacet
facet normal -0.13052619221987416 -0.9914448613738339 -0.0
  outer loop
    vertex 1409.9999999999998 132.13773099999565 269.99999999999994
    vertex 1406.117714323462 132.64884360565893 29.999999999999986
    vertex 1409.9999999999998 132.13773099999565 29.999999999999986
  endloop
endfacet
facet normal -0.13052619221987416 -0.9914448613738339 -0.0
  outer loop
    vertex 1406.117714323462 132.64884360565893 29.999999999999986
    vertex 1409.9999999999998 132.13773099999565 269.99999999999994
    vertex 1406.117714323462 132.64884360565893 269.99999999999994
  endloop
endfacet
facet normal -0.9062353804970598 -0.3753749853041975 -0.1945020707941774
  outer loop
    vertex 1294.088900845312 116.07944558769177 209.99999999999997
    vertex 1340.7179676972462 107.13773099999773 10.0
    vertex 1306.0769515458665 87.13773099999506 209.99999999999997
  endloop
endfacet
facet normal 0.7782019634671516 0.5971353686666495 -0.19450207079415527
  outer loop
    vertex 1494.8528137423862 231.9905447423814 209.99999999999997
    vertex 1513.9230484541351 207.13773099999665 209.99999999999997
    vertex 1466.568542494925 203.70627349492196 10.0
  endloop
endfacet
facet normal 0.9725103539708237 0.12803341702980325 -0.19450207079415877
  outer loop
    vertex 1525.911099154689 178.19601641229633 209.99999999999997
    vertex 1529.9999999999989 147.1377309999951 209.99999999999997
    vertex 1487.2740661031264 167.8432546081993 10.0
  endloop
endfacet
facet normal -0.12803341702986498 0.9725103539708162 -0.19450207079415538
  outer loop
    vertex 1378.9417145876969 263.048830154684 209.99999999999997
    vertex 1410.0000000000014 227.13773099999787 10.0
    vertex 1389.2944763917997 224.41179710312323 10.0
  endloop
endfacet
facet normal 0.13052619221987416 -0.9914448613738339 0.0
  outer loop
    vertex 1413.8822856765378 132.64884360565893 269.99999999999994
    vertex 1409.9999999999998 132.13773099999565 29.999999999999986
    vertex 1413.8822856765378 132.64884360565893 29.999999999999986
  endloop
endfacet
facet normal 0.13052619221987416 -0.9914448613738339 0.0
  outer loop
    vertex 1409.9999999999998 132.13773099999565 29.999999999999986
    vertex 1413.8822856765378 132.64884360565893 269.99999999999994
    vertex 1409.9999999999998 132.13773099999565 269.99999999999994
  endloop
endfacet
facet normal -0.5971353686665807 0.7782019634672029 -0.19450207079416185
  outer loop
    vertex 1325.147186257613 231.9905447423814 209.99999999999997
    vertex 1370.0000000000014 216.4197633027527 10.0
    vertex 1353.4314575050778 203.70627349492196 10.0
  endloop
endfacet
facet normal 0.7933533402912204 0.6087614290087399 0.0
  outer loop
    vertex 1420.606601717798 157.74433271779313 29.999999999999986
    vertex 1422.9903810567664 154.63773099999486 269.99999999999994
    vertex 1422.9903810567664 154.63773099999486 29.999999999999986
  endloop
endfacet
facet normal 0.7933533402912204 0.6087614290087399 0.0
  outer loop
    vertex 1422.9903810567664 154.63773099999486 269.99999999999994
    vertex 1420.606601717798 157.74433271779313 29.999999999999986
    vertex 1420.606601717798 157.74433271779313 269.99999999999994
  endloop
endfacet
facet normal 0.3753749853041594 0.9062353804970789 -0.19450207079416168
  outer loop
    vertex 1470.000000000001 251.0607794541304 209.99999999999997
    vertex 1450.0000000000011 216.4197633027527 10.0
    vertex 1441.0582854123024 263.048830154684 209.99999999999997
  endloop
endfacet
facet normal 0.37537498530423 0.9062353804970518 -0.19450207079415216
  outer loop
    vertex 1441.0582854123024 263.048830154684 209.99999999999997
    vertex 1450.0000000000011 216.4197633027527 10.0
    vertex 1430.7055236082028 224.41179710312323 10.0
  endloop
endfacet
facet normal -0.5971353686664312 -0.7782019634673105 -0.19450207079418974
  outer loop
    vertex 1325.147186257613 62.28491725760596 209.99999999999997
    vertex 1353.4314575050778 90.56918850507407 10.0
    vertex 1350.0000000000005 43.21468254586563 209.99999999999997
  endloop
endfacet
facet normal -0.7782019634671982 0.5971353686665851 -0.19450207079416687
  outer loop
    vertex 1325.147186257613 231.9905447423814 209.99999999999997
    vertex 1353.4314575050778 203.70627349492196 10.0
    vertex 1340.7179676972462 187.1377309999976 10.0
  endloop
endfacet
facet normal -0.9062353804970548 0.3753749853042139 -0.19450207079416856
  outer loop
    vertex 1306.0769515458665 207.1377309999952 209.99999999999997
    vertex 1340.7179676972462 187.1377309999976 10.0
    vertex 1332.725933896876 167.8432546081993 10.0
  endloop
endfacet
facet normal 0.12803341702986468 0.9725103539708139 -0.19450207079416676
  outer loop
    vertex 1409.9999999999998 267.1377309999989 209.99999999999997
    vertex 1430.7055236082028 224.41179710312323 10.0
    vertex 1410.0000000000014 227.13773099999787 10.0
  endloop
endfacet
facet normal -0.37537498530439484 -0.9062353804969795 -0.19450207079417003
  outer loop
    vertex 1350.0000000000005 43.21468254586563 209.99999999999997
    vertex 1370.0000000000014 77.85569869724333 10.0
    vertex 1378.9417145876969 31.22663184530404 209.99999999999997
  endloop
endfacet
facet normal -0.9914448613738085 -0.1305261922200673 -0.0
  outer loop
    vertex 1395.0 147.1377309999951 269.99999999999994
    vertex 1395.511112605664 143.25544532345765 29.999999999999986
    vertex 1395.511112605664 143.25544532345765 269.99999999999994
  endloop
endfacet
facet normal -0.9914448613738085 -0.1305261922200673 -0.0
  outer loop
    vertex 1395.511112605664 143.25544532345765 29.999999999999986
    vertex 1395.0 147.1377309999951 269.99999999999994
    vertex 1395.0 147.1377309999951 29.999999999999986
  endloop
endfacet
facet normal -0.6087614290086819 -0.7933533402912651 -0.0
  outer loop
    vertex 1402.5000000000002 134.14734994322893 269.99999999999994
    vertex 1399.3933982822018 136.5311292821971 29.999999999999986
    vertex 1402.5000000000002 134.14734994322893 29.999999999999986
  endloop
endfacet
facet normal -0.6087614290086819 -0.7933533402912651 -0.0
  outer loop
    vertex 1399.3933982822018 136.5311292821971 29.999999999999986
    vertex 1402.5000000000002 134.14734994322893 269.99999999999994
    vertex 1399.3933982822018 136.5311292821971 269.99999999999994
  endloop
endfacet
facet normal -0.9238795325113033 -0.3826834323650502 -0.0
  outer loop
    vertex 1395.511112605664 143.25544532345765 269.99999999999994
    vertex 1397.0096189432334 139.6377309999954 29.999999999999986
    vertex 1397.0096189432334 139.6377309999954 269.99999999999994
  endloop
endfacet
facet normal -0.9238795325113033 -0.3826834323650502 -0.0
  outer loop
    vertex 1397.0096189432334 139.6377309999954 29.999999999999986
    vertex 1395.511112605664 143.25544532345765 269.99999999999994
    vertex 1395.511112605664 143.25544532345765 29.999999999999986
  endloop
endfacet
facet normal -0.9725103539708044 -0.12803341702992738 -0.1945020707941731
  outer loop
    vertex 1289.999999999998 147.1377309999951 209.99999999999997
    vertex 1332.725933896876 126.43220739179601 10.0
    vertex 1294.088900845312 116.07944558769177 209.99999999999997
  endloop
endfacet
facet normal 0.9062353804970826 0.3753749853041489 -0.1945020707941635
  outer loop
    vertex 1513.9230484541351 207.13773099999665 209.99999999999997
    vertex 1525.911099154689 178.19601641229633 209.99999999999997
    vertex 1479.2820323027563 187.1377309999983 10.0
  endloop
endfacet
facet normal -0.37537498530422864 0.9062353804970493 -0.19450207079416554
  outer loop
    vertex 1350.0000000000005 251.0607794541304 209.99999999999997
    vertex 1389.2944763917997 224.41179710312323 10.0
    vertex 1370.0000000000014 216.4197633027527 10.0
  endloop
endfacet
facet normal -0.9725103539708135 0.1280334170298669 -0.1945020707941671
  outer loop
    vertex 1294.088900845312 178.19601641229633 209.99999999999997
    vertex 1332.725933896876 167.8432546081993 10.0
    vertex 1330.0000000000014 147.137730999998 10.0
  endloop
endfacet
facet normal 0.5971353686665778 -0.7782019634671995 -0.19450207079418394
  outer loop
    vertex 1494.8528137423862 62.28491725760596 209.99999999999997
    vertex 1450.0000000000011 77.85569869724333 10.0
    vertex 1466.568542494925 90.56918850507407 10.0
  endloop
endfacet
facet normal 0.5971353686664942 -0.7782019634672666 -0.19450207079417187
  outer loop
    vertex 1494.8528137423862 62.28491725760596 209.99999999999997
    vertex 1470.000000000001 43.21468254586563 209.99999999999997
    vertex 1450.0000000000011 77.85569869724333 10.0
  endloop
endfacet
facet normal 0.5971353686664942 -0.7782019634672666 -0.19450207079417187
  outer loop
    vertex 1470.000000000001 43.21468254586563 209.99999999999997
    vertex 1494.8528137423862 62.28491725760596 209.99999999999997
    vertex 1474.9006572956646 46.975089147659936 209.99999999999997
  endloop
endfacet
facet normal 0.9062353804970619 0.37537498530420305 -0.19450207079415618
  outer loop
    vertex 1479.2820323027563 187.1377309999983 10.0
    vertex 1525.911099154689 178.19601641229633 209.99999999999997
    vertex 1487.2740661031264 167.8432546081993 10.0
  endloop
endfacet
facet normal 0.37537498530437013 -0.9062353804969869 -0.1945020707941829
  outer loop
    vertex 1441.0582854123024 31.22663184530404 209.99999999999997
    vertex 1430.7055236082028 69.86366489687279 10.0
    vertex 1470.000000000001 43.21468254586563 209.99999999999997
  endloop
endfacet
facet normal -0.7782019634672047 0.597135368666577 -0.19450207079416543
  outer loop
    vertex 1325.147186257613 231.9905447423814 209.99999999999997
    vertex 1340.7179676972462 187.1377309999976 10.0
    vertex 1306.0769515458665 207.1377309999952 209.99999999999997
  endloop
endfacet
facet normal -0.9725103539708028 0.1280334170299363 -0.19450207079417592
  outer loop
    vertex 1294.088900845312 178.19601641229633 209.99999999999997
    vertex 1330.0000000000014 147.137730999998 10.0
    vertex 1289.999999999998 147.1377309999951 209.99999999999997
  endloop
endfacet
facet normal 0.0 0.0 -1.0
  outer loop
    vertex 1332.725933896876 167.8432546081993 10.0
    vertex 1332.725933896876 126.43220739179601 10.0
    vertex 1330.0000000000014 147.137730999998 10.0
  endloop
endfacet
facet normal 0.0 0.0 -1.0
  outer loop
    vertex 1332.725933896876 126.43220739179601 10.0
    vertex 1332.725933896876 167.8432546081993 10.0
    vertex 1340.7179676972462 187.1377309999976 10.0
  endloop
endfacet
facet normal 0.0 0.0 -1.0
  outer loop
    vertex 1332.725933896876 126.43220739179601 10.0
    vertex 1340.7179676972462 187.1377309999976 10.0
    vertex 1340.7179676972462 107.13773099999773 10.0
  endloop
endfacet
facet normal 0.0 0.0 -1.0
  outer loop
    vertex 1340.7179676972462 107.13773099999773 10.0
    vertex 1340.7179676972462 187.1377309999976 10.0
    vertex 1353.4314575050778 203.70627349492196 10.0
  endloop
endfacet
facet normal 0.0 0.0 -1.0
  outer loop
    vertex 1340.7179676972462 107.13773099999773 10.0
    vertex 1353.4314575050778 203.70627349492196 10.0
    vertex 1353.4314575050778 90.56918850507407 10.0
  endloop
endfacet
facet normal 0.0 0.0 -1.0
  outer loop
    vertex 1353.4314575050778 90.56918850507407 10.0
    vertex 1353.4314575050778 203.70627349492196 10.0
    vertex 1370.0000000000014 216.4197633027527 10.0
  endloop
endfacet
facet normal 0.0 0.0 -1.0
  outer loop
    vertex 1353.4314575050778 90.56918850507407 10.0
    vertex 1370.0000000000014 216.4197633027527 10.0
    vertex 1370.0000000000014 77.85569869724333 10.0
  endloop
endfacet
facet normal 0.0 0.0 -1.0
  outer loop
    vertex 1370.0000000000014 77.85569869724333 10.0
    vertex 1370.0000000000014 216.4197633027527 10.0
    vertex 1389.2944763917997 224.41179710312323 10.0
  endloop
endfacet
facet normal 0.0 0.0 -1.0
  outer loop
    vertex 1370.0000000000014 77.85569869724333 10.0
    vertex 1389.2944763917997 224.41179710312323 10.0
    vertex 1389.2944763917997 69.86366489687279 10.0
  endloop
endfacet
facet normal 0.0 0.0 -1.0
  outer loop
    vertex 1389.2944763917997 69.86366489687279 10.0
    vertex 1389.2944763917997 224.41179710312323 10.0
    vertex 1410.0000000000014 227.13773099999787 10.0
  endloop
endfacet
facet normal 0.0 0.0 -1.0
  outer loop
    vertex 1389.2944763917997 69.86366489687279 10.0
    vertex 1410.0000000000014 227.13773099999787 10.0
    vertex 1410.0000000000014 67.13773099999815 10.0
  endloop
endfacet
facet normal 0.0 0.0 -1.0
  outer loop
    vertex 1410.0000000000014 67.13773099999815 10.0
    vertex 1410.0000000000014 227.13773099999787 10.0
    vertex 1430.7055236082028 224.41179710312323 10.0
  endloop
endfacet
facet normal 0.0 0.0 -1.0
  outer loop
    vertex 1410.0000000000014 67.13773099999815 10.0
    vertex 1430.7055236082028 224.41179710312323 10.0
    vertex 1430.7055236082028 69.86366489687279 10.0
  endloop
endfacet
facet normal 0.0 0.0 -1.0
  outer loop
    vertex 1430.7055236082028 69.86366489687279 10.0
    vertex 1430.7055236082028 224.41179710312323 10.0
    vertex 1450.0000000000011 216.4197633027527 10.0
  endloop
endfacet
facet normal 0.0 0.0 -1.0
  outer loop
    vertex 1430.7055236082028 69.86366489687279 10.0
    vertex 1450.0000000000011 216.4197633027527 10.0
    vertex 1450.0000000000011 77.85569869724333 10.0
  endloop
endfacet
facet normal 0.0 0.0 -1.0
  outer loop
    vertex 1450.0000000000011 77.85569869724333 10.0
    vertex 1450.0000000000011 216.4197633027527 10.0
    vertex 1466.568542494925 203.70627349492196 10.0
  endloop
endfacet
facet normal 0.0 0.0 -1.0
  outer loop
    vertex 1450.0000000000011 77.85569869724333 10.0
    vertex 1466.568542494925 203.70627349492196 10.0
    vertex 1466.568542494925 90.56918850507407 10.0
  endloop
endfacet
facet normal 0.0 0.0 -1.0
  outer loop
    vertex 1466.568542494925 90.56918850507407 10.0
    vertex 1466.568542494925 203.70627349492196 10.0
    vertex 1479.2820323027563 187.1377309999983 10.0
  endloop
endfacet
facet normal 0.0 0.0 -1.0
  outer loop
    vertex 1466.568542494925 90.56918850507407 10.0
    vertex 1479.2820323027563 187.1377309999983 10.0
    vertex 1479.2820323027563 107.13773099999845 10.0
  endloop
endfacet
facet normal 0.0 0.0 -1.0
  outer loop
    vertex 1479.2820323027563 107.13773099999845 10.0
    vertex 1479.2820323027563 187.1377309999983 10.0
    vertex 1487.2740661031264 167.8432546081993 10.0
  endloop
endfacet
facet normal 0.0 0.0 -1.0
  outer loop
    vertex 1479.2820323027563 107.13773099999845 10.0
    vertex 1487.2740661031264 167.8432546081993 10.0
    vertex 1487.2740661031264 126.43220739179674 10.0
  endloop
endfacet
facet normal 0.0 0.0 -1.0
  outer loop
    vertex 1487.2740661031264 126.43220739179674 10.0
    vertex 1487.2740661031264 167.8432546081993 10.0
    vertex 1490.0000000000011 147.137730999998 10.0
  endloop
endfacet
facet normal -0.12803341702995122 0.9725103539708025 -0.19450207079416632
  outer loop
    vertex 1409.9999999999998 267.1377309999989 209.99999999999997
    vertex 1410.0000000000014 227.13773099999787 10.0
    vertex 1378.9417145876969 263.048830154684 209.99999999999997
  endloop
endfacet
facet normal 0.0 0.0 1.0
  outer loop
    vertex 1294.088900845312 116.07944558769177 209.99999999999997
    vertex 1294.088900845312 178.19601641229633 209.99999999999997
    vertex 1289.999999999998 147.1377309999951 209.99999999999997
  endloop
endfacet
facet normal 0.0 0.0 1.0
  outer loop
    vertex 1294.088900845312 178.19601641229633 209.99999999999997
    vertex 1294.088900845312 116.07944558769177 209.99999999999997
    vertex 1306.0769515458665 87.13773099999506 209.99999999999997
  endloop
endfacet
facet normal 0.0 0.0 1.0
  outer loop
    vertex 1294.088900845312 178.19601641229633 209.99999999999997
    vertex 1306.0769515458665 87.13773099999506 209.99999999999997
    vertex 1301.0580095832302 147.13773099998213 209.99999999999997
  endloop
endfacet
facet normal 0.0 0.0 1.0
  outer loop
    vertex 1301.0580095832302 147.13773099998213 209.99999999999997
    vertex 1306.0769515458665 87.13773099999506 209.99999999999997
    vertex 1304.7701178891082 118.94146906874458 209.99999999999997
  endloop
endfacet
facet normal 0.0 0.0 1.0
  outer loop
    vertex 1304.7701178891082 118.94146906874458 209.99999999999997
    vertex 1306.0769515458665 87.13773099999506 209.99999999999997
    vertex 1315.6534687602377 92.66673579160415 209.99999999999997
  endloop
endfacet
facet normal 0.0 0.0 1.0
  outer loop
    vertex 1315.6534687602377 92.66673579160415 209.99999999999997
    vertex 1306.0769515458665 87.13773099999506 209.99999999999997
    vertex 1325.147186257613 62.28491725760596 209.99999999999997
  endloop
endfacet
facet normal 0.0 0.0 1.0
  outer loop
    vertex 1315.6534687602377 92.66673579160415 209.99999999999997
    vertex 1325.147186257613 62.28491725760596 209.99999999999997
    vertex 1332.9663798203417 70.10411082032182 209.99999999999997
  endloop
endfacet
facet normal 0.0 0.0 1.0
  outer loop
    vertex 1332.9663798203417 70.10411082032182 209.99999999999997
    vertex 1325.147186257613 62.28491725760596 209.99999999999997
    vertex 1350.0000000000005 43.21468254586563 209.99999999999997
  endloop
endfacet
facet normal 0.0 0.0 1.0
  outer loop
    vertex 1332.9663798203417 70.10411082032182 209.99999999999997
    vertex 1350.0000000000005 43.21468254586563 209.99999999999997
    vertex 1355.5290047916121 52.79119976022362 209.99999999999997
  endloop
endfacet
facet normal 0.0 0.0 1.0
  outer loop
    vertex 1355.5290047916121 52.79119976022362 209.99999999999997
    vertex 1350.0000000000005 43.21468254586563 209.99999999999997
    vertex 1378.9417145876969 31.22663184530404 209.99999999999997
  endloop
endfacet
facet normal 0.0 0.0 1.0
  outer loop
    vertex 1355.5290047916121 52.79119976022362 209.99999999999997
    vertex 1378.9417145876969 31.22663184530404 209.99999999999997
    vertex 1381.8037380687608 41.907848889080654 209.99999999999997
  endloop
endfacet
facet normal 0.0 0.0 1.0
  outer loop
    vertex 1381.8037380687608 41.907848889080654 209.99999999999997
    vertex 1378.9417145876969 31.22663184530404 209.99999999999997
    vertex 1409.9999999999998 27.13773099999426 209.99999999999997
  endloop
endfacet
facet normal 0.0 0.0 1.0
  outer loop
    vertex 1381.8037380687608 41.907848889080654 209.99999999999997
    vertex 1409.9999999999998 27.13773099999426 209.99999999999997
    vertex 1409.9999999999966 38.1957405832175 209.99999999999997
  endloop
endfacet
facet normal 0.0 0.0 1.0
  outer loop
    vertex 1409.9999999999966 38.1957405832175 209.99999999999997
    vertex 1409.9999999999998 27.13773099999426 209.99999999999997
    vertex 1438.1962619312312 41.90784888909365 209.99999999999997
  endloop
endfacet
facet normal 0.0 0.0 1.0
  outer loop
    vertex 1438.1962619312312 41.90784888909365 209.99999999999997
    vertex 1409.9999999999998 27.13773099999426 209.99999999999997
    vertex 1441.0582854123024 31.22663184530404 209.99999999999997
  endloop
endfacet
facet normal 0.0 0.0 1.0
  outer loop
    vertex 1438.1962619312312 41.90784888909365 209.99999999999997
    vertex 1441.0582854123024 31.22663184530404 209.99999999999997
    vertex 1464.4709952083817 52.79119976022723 209.99999999999997
  endloop
endfacet
facet normal 0.0 0.0 1.0
  outer loop
    vertex 1464.4709952083817 52.79119976022723 209.99999999999997
    vertex 1441.0582854123024 31.22663184530404 209.99999999999997
    vertex 1470.000000000001 43.21468254586563 209.99999999999997
  endloop
endfacet
facet normal 0.0 0.0 1.0
  outer loop
    vertex 1464.4709952083817 52.79119976022723 209.99999999999997
    vertex 1470.000000000001 43.21468254586563 209.99999999999997
    vertex 1487.0336201796563 70.10411082032904 209.99999999999997
  endloop
endfacet
facet normal 0.0 0.0 1.0
  outer loop
    vertex 1487.0336201796563 70.10411082032904 209.99999999999997
    vertex 1470.000000000001 43.21468254586563 209.99999999999997
    vertex 1474.9006572956646 46.975089147659936 209.99999999999997
  endloop
endfacet
facet normal 0.0 0.0 1.0
  outer loop
    vertex 1487.0336201796563 70.10411082032904 209.99999999999997
    vertex 1474.9006572956646 46.975089147659936 209.99999999999997
    vertex 1494.8528137423862 62.28491725760596 209.99999999999997
  endloop
endfacet
facet normal 0.0 0.0 1.0
  outer loop
    vertex 1487.0336201796563 70.10411082032904 209.99999999999997
    vertex 1494.8528137423862 62.28491725760596 209.99999999999997
    vertex 1504.346531239761 92.66673579160776 209.99999999999997
  endloop
endfacet
facet normal 0.0 0.0 1.0
  outer loop
    vertex 1504.346531239761 92.66673579160776 209.99999999999997
    vertex 1494.8528137423862 62.28491725760596 209.99999999999997
    vertex 1513.9230484541351 87.13773099999506 209.99999999999997
  endloop
endfacet
facet normal 0.0 0.0 1.0
  outer loop
    vertex 1504.346531239761 92.66673579160776 209.99999999999997
    vertex 1513.9230484541351 87.13773099999506 209.99999999999997
    vertex 1515.2298821108902 118.94146906875541 209.99999999999997
  endloop
endfacet
facet normal 0.0 0.0 1.0
  outer loop
    vertex 1515.2298821108902 118.94146906875541 209.99999999999997
    vertex 1513.9230484541351 87.13773099999506 209.99999999999997
    vertex 1525.911099154689 116.0794455876932 209.99999999999997
  endloop
endfacet
facet normal 0.0 0.0 1.0
  outer loop
    vertex 1515.2298821108902 118.94146906875541 209.99999999999997
    vertex 1525.911099154689 116.0794455876932 209.99999999999997
    vertex 1518.941990416768 147.1377309999908 209.99999999999997
  endloop
endfacet
facet normal 0.0 0.0 1.0
  outer loop
    vertex 1301.0580095832302 147.13773099998213 209.99999999999997
    vertex 1306.0769515458665 207.1377309999952 209.99999999999997
    vertex 1294.088900845312 178.19601641229633 209.99999999999997
  endloop
endfacet
facet normal 0.0 0.0 1.0
  outer loop
    vertex 1306.0769515458665 207.1377309999952 209.99999999999997
    vertex 1301.0580095832302 147.13773099998213 209.99999999999997
    vertex 1304.7701178891045 175.33399293122184 209.99999999999997
  endloop
endfacet
facet normal 0.0 0.0 1.0
  outer loop
    vertex 1306.0769515458665 207.1377309999952 209.99999999999997
    vertex 1304.7701178891045 175.33399293122184 209.99999999999997
    vertex 1315.6534687602334 201.60872620837094 209.99999999999997
  endloop
endfacet
facet normal 0.0 0.0 1.0
  outer loop
    vertex 1306.0769515458665 207.1377309999952 209.99999999999997
    vertex 1315.6534687602334 201.60872620837094 209.99999999999997
    vertex 1325.147186257613 231.9905447423814 209.99999999999997
  endloop
endfacet
facet normal 0.0 0.0 1.0
  outer loop
    vertex 1325.147186257613 231.9905447423814 209.99999999999997
    vertex 1315.6534687602334 201.60872620837094 209.99999999999997
    vertex 1332.9663798203399 224.1713511796475 209.99999999999997
  endloop
endfacet
facet normal 0.0 0.0 1.0
  outer loop
    vertex 1325.147186257613 231.9905447423814 209.99999999999997
    vertex 1332.9663798203399 224.1713511796475 209.99999999999997
    vertex 1350.0000000000005 251.0607794541304 209.99999999999997
  endloop
endfacet
facet normal 0.0 0.0 1.0
  outer loop
    vertex 1350.0000000000005 251.0607794541304 209.99999999999997
    vertex 1332.9663798203399 224.1713511796475 209.99999999999997
    vertex 1355.529004791614 241.48426223975147 209.99999999999997
  endloop
endfacet
facet normal 0.0 0.0 1.0
  outer loop
    vertex 1350.0000000000005 251.0607794541304 209.99999999999997
    vertex 1355.529004791614 241.48426223975147 209.99999999999997
    vertex 1378.9417145876969 263.048830154684 209.99999999999997
  endloop
endfacet
facet normal 0.0 0.0 1.0
  outer loop
    vertex 1378.9417145876969 263.048830154684 209.99999999999997
    vertex 1355.529004791614 241.48426223975147 209.99999999999997
    vertex 1381.8037380687608 252.36761311088287 209.99999999999997
  endloop
endfacet
facet normal 0.0 0.0 1.0
  outer loop
    vertex 1378.9417145876969 263.048830154684 209.99999999999997
    vertex 1381.8037380687608 252.36761311088287 209.99999999999997
    vertex 1409.9999999999998 267.1377309999989 209.99999999999997
  endloop
endfacet
facet normal 0.0 0.0 1.0
  outer loop
    vertex 1409.9999999999998 267.1377309999989 209.99999999999997
    vertex 1381.8037380687608 252.36761311088287 209.99999999999997
    vertex 1409.9999999999966 256.0797214167446 209.99999999999997
  endloop
endfacet
facet normal 0.0 0.0 1.0
  outer loop
    vertex 1409.9999999999998 267.1377309999989 209.99999999999997
    vertex 1409.9999999999966 256.0797214167446 209.99999999999997
    vertex 1438.1962619312312 252.36761311089228 209.99999999999997
  endloop
endfacet
facet normal 0.0 0.0 1.0
  outer loop
    vertex 1409.9999999999998 267.1377309999989 209.99999999999997
    vertex 1438.1962619312312 252.36761311089228 209.99999999999997
    vertex 1441.0582854123024 263.048830154684 209.99999999999997
  endloop
endfacet
facet normal 0.0 0.0 1.0
  outer loop
    vertex 1441.0582854123024 263.048830154684 209.99999999999997
    vertex 1438.1962619312312 252.36761311089228 209.99999999999997
    vertex 1464.4709952083817 241.48426223975653 209.99999999999997
  endloop
endfacet
facet normal 0.0 0.0 1.0
  outer loop
    vertex 1441.0582854123024 263.048830154684 209.99999999999997
    vertex 1464.4709952083817 241.48426223975653 209.99999999999997
    vertex 1470.000000000001 251.0607794541304 209.99999999999997
  endloop
endfacet
facet normal 0.0 0.0 1.0
  outer loop
    vertex 1470.000000000001 251.0607794541304 209.99999999999997
    vertex 1464.4709952083817 241.48426223975653 209.99999999999997
    vertex 1487.0336201796563 224.1713511796511 209.99999999999997
  endloop
endfacet
facet normal 0.0 0.0 1.0
  outer loop
    vertex 1470.000000000001 251.0607794541304 209.99999999999997
    vertex 1487.0336201796563 224.1713511796511 209.99999999999997
    vertex 1474.9006572957242 247.30037285228772 209.99999999999997
  endloop
endfacet
facet normal 0.0 0.0 1.0
  outer loop
    vertex 1474.9006572957242 247.30037285228772 209.99999999999997
    vertex 1487.0336201796563 224.1713511796511 209.99999999999997
    vertex 1494.8528137423862 231.9905447423814 209.99999999999997
  endloop
endfacet
facet normal 0.0 0.0 1.0
  outer loop
    vertex 1494.8528137423862 231.9905447423814 209.99999999999997
    vertex 1487.0336201796563 224.1713511796511 209.99999999999997
    vertex 1504.3465312397598 201.6087262083796 209.99999999999997
  endloop
endfacet
facet normal 0.0 0.0 1.0
  outer loop
    vertex 1494.8528137423862 231.9905447423814 209.99999999999997
    vertex 1504.3465312397598 201.6087262083796 209.99999999999997
    vertex 1513.9230484541351 207.13773099999665 209.99999999999997
  endloop
endfacet
facet normal 0.0 0.0 1.0
  outer loop
    vertex 1513.9230484541351 207.13773099999665 209.99999999999997
    vertex 1504.3465312397598 201.6087262083796 209.99999999999997
    vertex 1515.2298821108902 175.3339929312305 209.99999999999997
  endloop
endfacet
facet normal 0.0 0.0 1.0
  outer loop
    vertex 1513.9230484541351 207.13773099999665 209.99999999999997
    vertex 1515.2298821108902 175.3339929312305 209.99999999999997
    vertex 1525.911099154689 178.19601641229633 209.99999999999997
  endloop
endfacet
facet normal 0.0 0.0 1.0
  outer loop
    vertex 1525.911099154689 178.19601641229633 209.99999999999997
    vertex 1515.2298821108902 175.3339929312305 209.99999999999997
    vertex 1518.941990416768 147.1377309999908 209.99999999999997
  endloop
endfacet
facet normal 0.0 0.0 1.0
  outer loop
    vertex 1525.911099154689 178.19601641229633 209.99999999999997
    vertex 1518.941990416768 147.1377309999908 209.99999999999997
    vertex 1525.911099154689 116.0794455876932 209.99999999999997
  endloop
endfacet
facet normal 0.0 0.0 1.0
  outer loop
    vertex 1525.911099154689 178.19601641229633 209.99999999999997
    vertex 1525.911099154689 116.0794455876932 209.99999999999997
    vertex 1529.9999999999989 147.1377309999951 209.99999999999997
  endloop
endfacet
facet normal 0.5971353686666603 0.7782019634671435 -0.19450207079415505
  outer loop
    vertex 1470.000000000001 251.0607794541304 209.99999999999997
    vertex 1494.8528137423862 231.9905447423814 209.99999999999997
    vertex 1466.568542494925 203.70627349492196 10.0
  endloop
endfacet
facet normal 0.5971353686666603 0.7782019634671435 -0.19450207079415505
  outer loop
    vertex 1494.8528137423862 231.9905447423814 209.99999999999997
    vertex 1470.000000000001 251.0607794541304 209.99999999999997
    vertex 1474.9006572957242 247.30037285228772 209.99999999999997
  endloop
endfacet
facet normal 0.7782019634671862 0.5971353686666022 -0.19450207079416268
  outer loop
    vertex 1513.9230484541351 207.13773099999665 209.99999999999997
    vertex 1479.2820323027563 187.1377309999983 10.0
    vertex 1466.568542494925 203.70627349492196 10.0
  endloop
endfacet
facet normal -0.7933533402912204 -0.6087614290087399 -0.0
  outer loop
    vertex 1397.0096189432334 139.6377309999954 269.99999999999994
    vertex 1399.3933982822018 136.5311292821971 29.999999999999986
    vertex 1399.3933982822018 136.5311292821971 269.99999999999994
  endloop
endfacet
facet normal -0.7933533402912204 -0.6087614290087399 -0.0
  outer loop
    vertex 1399.3933982822018 136.5311292821971 29.999999999999986
    vertex 1397.0096189432334 139.6377309999954 269.99999999999994
    vertex 1397.0096189432334 139.6377309999954 29.999999999999986
  endloop
endfacet
facet normal -0.9062353804970533 -0.37537498530421376 -0.19450207079417514
  outer loop
    vertex 1332.725933896876 126.43220739179601 10.0
    vertex 1340.7179676972462 107.13773099999773 10.0
    vertex 1294.088900845312 116.07944558769177 209.99999999999997
  endloop
endfacet
facet normal 0.9572722985169548 0.12602728897098772 0.2602822870014196
  outer loop
    vertex 1349.9999999999998 147.1377309999951 29.999999999999986
    vertex 1304.7701178891082 118.94146906874458 209.99999999999997
    vertex 1352.0444504226557 131.6085882938438 29.999999999999986
  endloop
endfacet
facet normal 0.9572722985169566 -0.12602728897098778 0.2602822870014127
  outer loop
    vertex 1352.0444504226557 162.66687370614645 29.999999999999986
    vertex 1301.0580095832302 147.13773099998213 209.99999999999997
    vertex 1349.9999999999998 147.1377309999951 29.999999999999986
  endloop
endfacet
facet normal 0.5877789830773045 0.7660084843693935 0.2602822870014678
  outer loop
    vertex 1355.5290047916121 52.79119976022362 209.99999999999997
    vertex 1379.9999999999998 95.17620677292894 29.999999999999986
    vertex 1332.9663798203417 70.10411082032182 209.99999999999997
  endloop
endfacet
facet normal -0.587778983077321 0.7660084843693882 0.2602822870014466
  outer loop
    vertex 1487.0336201796563 70.10411082032904 209.99999999999997
    vertex 1452.4264068711927 104.71132412880235 29.999999999999986
    vertex 1464.4709952083817 52.79119976022723 209.99999999999997
  endloop
endfacet
facet normal -0.7660084843693022 -0.5877789830774481 0.26028228700141204
  outer loop
    vertex 1487.0336201796563 224.1713511796511 209.99999999999997
    vertex 1452.4264068711927 189.5641378711879 29.999999999999986
    vertex 1461.961524227066 177.1377309999955 29.999999999999986
  endloop
endfacet
facet normal -0.7660084843693311 -0.5877789830774128 0.26028228700140693
  outer loop
    vertex 1487.0336201796563 224.1713511796511 209.99999999999997
    vertex 1461.961524227066 177.1377309999955 29.999999999999986
    vertex 1504.3465312397598 201.6087262083796 209.99999999999997
  endloop
endfacet
facet normal 0.9062353804970537 -0.3753749853042135 -0.1945020707941744
  outer loop
    vertex 1487.2740661031264 126.43220739179674 10.0
    vertex 1513.9230484541351 87.13773099999506 209.99999999999997
    vertex 1479.2820323027563 107.13773099999845 10.0
  endloop
endfacet
facet normal -0.7933533402912204 0.6087614290087399 0.0
  outer loop
    vertex 1399.3933982822018 157.74433271779313 269.99999999999994
    vertex 1397.0096189432334 154.63773099999486 29.999999999999986
    vertex 1397.0096189432334 154.63773099999486 269.99999999999994
  endloop
endfacet
facet normal -0.7933533402912204 0.6087614290087399 0.0
  outer loop
    vertex 1397.0096189432334 154.63773099999486 29.999999999999986
    vertex 1399.3933982822018 157.74433271779313 269.99999999999994
    vertex 1399.3933982822018 157.74433271779313 29.999999999999986
  endloop
endfacet
facet normal 0.3694933154395681 -0.892035773340285 0.2602822870013931
  outer loop
    vertex 1355.529004791614 241.48426223975147 209.99999999999997
    vertex 1379.9999999999998 199.09925522706132 29.999999999999986
    vertex 1381.8037380687608 252.36761311088287 209.99999999999997
  endloop
endfacet
facet normal -0.8920357733402997 0.36949331543952046 0.26028228700141093
  outer loop
    vertex 1467.9555495773438 131.6085882938438 29.999999999999986
    vertex 1461.9615242270663 117.13773099999545 29.999999999999986
    vertex 1515.2298821108902 118.94146906875541 209.99999999999997
  endloop
endfacet
facet normal 0.5877789830774234 0.7660084843692964 0.26028228700148526
  outer loop
    vertex 1332.9663798203417 70.10411082032182 209.99999999999997
    vertex 1379.9999999999998 95.17620677292894 29.999999999999986
    vertex 1367.573593128807 104.71132412880235 29.999999999999986
  endloop
endfacet
facet normal -0.9572722985169478 0.12602728897106497 0.260282287001408
  outer loop
    vertex 1518.941990416768 147.1377309999908 209.99999999999997
    vertex 1467.9555495773438 131.6085882938438 29.999999999999986
    vertex 1515.2298821108902 118.94146906875541 209.99999999999997
  endloop
endfacet
facet normal 0.1260272889709851 0.9572722985169265 0.26028228700152484
  outer loop
    vertex 1381.8037380687608 41.907848889080654 209.99999999999997
    vertex 1409.9999999999998 87.13773099999506 29.999999999999986
    vertex 1394.4708572938484 89.18218142265103 29.999999999999986
  endloop
endfacet
facet normal -0.12602728897098642 0.9572722985169444 0.26028228700145833
  outer loop
    vertex 1409.9999999999966 38.1957405832175 209.99999999999997
    vertex 1425.529142706151 89.18218142265103 29.999999999999986
    vertex 1409.9999999999998 87.13773099999506 29.999999999999986
  endloop
endfacet
facet normal -0.12602728897098775 -0.957272298516951 0.2602822870014338
  outer loop
    vertex 1438.1962619312312 252.36761311089228 209.99999999999997
    vertex 1409.9999999999998 207.1377309999952 29.999999999999986
    vertex 1425.529142706151 205.09328057733921 29.999999999999986
  endloop
endfacet
facet normal -0.5877789830774045 -0.7660084843693378 0.2602822870014066
  outer loop
    vertex 1464.4709952083817 241.48426223975653 209.99999999999997
    vertex 1440.0 199.09925522706132 29.999999999999986
    vertex 1487.0336201796563 224.1713511796511 209.99999999999997
  endloop
endfacet
facet normal 0.7660084843693461 -0.5877789830773906 0.26028228700141287
  outer loop
    vertex 1332.9663798203399 224.1713511796475 209.99999999999997
    vertex 1315.6534687602334 201.60872620837094 209.99999999999997
    vertex 1367.573593128807 189.5641378711879 29.999999999999986
  endloop
endfacet
facet normal 0.0 0.0 1.0
  outer loop
    vertex 1352.0444504226557 131.6085882938438 29.999999999999986
    vertex 1352.0444504226557 162.66687370614645 29.999999999999986
    vertex 1349.9999999999998 147.1377309999951 29.999999999999986
  endloop
endfacet
facet normal 0.0 0.0 1.0
  outer loop
    vertex 1352.0444504226557 162.66687370614645 29.999999999999986
    vertex 1352.0444504226557 131.6085882938438 29.999999999999986
    vertex 1358.0384757729337 117.13773099999473 29.999999999999986
  endloop
endfacet
facet normal 0.0 0.0 1.0
  outer loop
    vertex 1352.0444504226557 162.66687370614645 29.999999999999986
    vertex 1358.0384757729337 117.13773099999473 29.999999999999986
    vertex 1358.0384757729332 177.1377309999948 29.999999999999986
  endloop
endfacet
facet normal 0.0 0.0 1.0
  outer loop
    vertex 1358.0384757729332 177.1377309999948 29.999999999999986
    vertex 1358.0384757729337 117.13773099999473 29.999999999999986
    vertex 1367.573593128807 189.5641378711879 29.999999999999986
  endloop
endfacet
facet normal 0.0 0.0 1.0
  outer loop
    vertex 1367.573593128807 189.5641378711879 29.999999999999986
    vertex 1358.0384757729337 117.13773099999473 29.999999999999986
    vertex 1367.573593128807 104.71132412880235 29.999999999999986
  endloop
endfacet
facet normal 0.0 0.0 1.0
  outer loop
    vertex 1367.573593128807 189.5641378711879 29.999999999999986
    vertex 1367.573593128807 104.71132412880235 29.999999999999986
    vertex 1379.9999999999998 95.17620677292894 29.999999999999986
  endloop
endfacet
facet normal 0.0 0.0 1.0
  outer loop
    vertex 1367.573593128807 189.5641378711879 29.999999999999986
    vertex 1379.9999999999998 95.17620677292894 29.999999999999986
    vertex 1379.9999999999998 199.09925522706132 29.999999999999986
  endloop
endfacet
facet normal 0.0 0.0 1.0
  outer loop
    vertex 1379.9999999999998 199.09925522706132 29.999999999999986
    vertex 1379.9999999999998 95.17620677292894 29.999999999999986
    vertex 1394.4708572938484 89.18218142265103 29.999999999999986
  endloop
endfacet
facet normal 0.0 0.0 1.0
  outer loop
    vertex 1379.9999999999998 199.09925522706132 29.999999999999986
    vertex 1394.4708572938484 89.18218142265103 29.999999999999986
    vertex 1394.4708572938484 205.09328057733921 29.999999999999986
  endloop
endfacet
facet normal 0.0 0.0 1.0
  outer loop
    vertex 1394.4708572938484 205.09328057733921 29.999999999999986
    vertex 1394.4708572938484 89.18218142265103 29.999999999999986
    vertex 1395.0 147.1377309999951 29.999999999999986
  endloop
endfacet
facet normal 0.0 0.0 1.0
  outer loop
    vertex 1395.0 147.1377309999951 29.999999999999986
    vertex 1394.4708572938484 89.18218142265103 29.999999999999986
    vertex 1395.511112605664 143.25544532345765 29.999999999999986
  endloop
endfacet
facet normal 0.0 0.0 1.0
  outer loop
    vertex 1395.511112605664 143.25544532345765 29.999999999999986
    vertex 1394.4708572938484 89.18218142265103 29.999999999999986
    vertex 1409.9999999999998 87.13773099999506 29.999999999999986
  endloop
endfacet
facet normal 0.0 0.0 1.0
  outer loop
    vertex 1395.511112605664 143.25544532345765 29.999999999999986
    vertex 1409.9999999999998 87.13773099999506 29.999999999999986
    vertex 1397.0096189432334 139.6377309999954 29.999999999999986
  endloop
endfacet
facet normal 0.0 0.0 1.0
  outer loop
    vertex 1397.0096189432334 139.6377309999954 29.999999999999986
    vertex 1409.9999999999998 87.13773099999506 29.999999999999986
    vertex 1399.3933982822018 136.5311292821971 29.999999999999986
  endloop
endfacet
facet normal 0.0 0.0 1.0
  outer loop
    vertex 1399.3933982822018 136.5311292821971 29.999999999999986
    vertex 1409.9999999999998 87.13773099999506 29.999999999999986
    vertex 1402.5000000000002 134.14734994322893 29.999999999999986
  endloop
endfacet
facet normal 0.0 0.0 1.0
  outer loop
    vertex 1402.5000000000002 134.14734994322893 29.999999999999986
    vertex 1409.9999999999998 87.13773099999506 29.999999999999986
    vertex 1406.117714323462 132.64884360565893 29.999999999999986
  endloop
endfacet
facet normal 0.0 0.0 1.0
  outer loop
    vertex 1406.117714323462 132.64884360565893 29.999999999999986
    vertex 1409.9999999999998 87.13773099999506 29.999999999999986
    vertex 1409.9999999999998 132.13773099999565 29.999999999999986
  endloop
endfacet
facet normal 0.0 0.0 1.0
  outer loop
    vertex 1409.9999999999998 132.13773099999565 29.999999999999986
    vertex 1409.9999999999998 87.13773099999506 29.999999999999986
    vertex 1425.529142706151 89.18218142265103 29.999999999999986
  endloop
endfacet
facet normal 0.0 0.0 1.0
  outer loop
    vertex 1409.9999999999998 132.13773099999565 29.999999999999986
    vertex 1425.529142706151 89.18218142265103 29.999999999999986
    vertex 1413.8822856765378 132.64884360565893 29.999999999999986
  endloop
endfacet
facet normal 0.0 0.0 1.0
  outer loop
    vertex 1413.8822856765378 132.64884360565893 29.999999999999986
    vertex 1425.529142706151 89.18218142265103 29.999999999999986
    vertex 1417.5 134.14734994322893 29.999999999999986
  endloop
endfacet
facet normal 0.0 0.0 1.0
  outer loop
    vertex 1417.5 134.14734994322893 29.999999999999986
    vertex 1425.529142706151 89.18218142265103 29.999999999999986
    vertex 1420.606601717798 136.5311292821971 29.999999999999986
  endloop
endfacet
facet normal 0.0 0.0 1.0
  outer loop
    vertex 1420.606601717798 136.5311292821971 29.999999999999986
    vertex 1425.529142706151 89.18218142265103 29.999999999999986
    vertex 1422.9903810567664 139.6377309999954 29.999999999999986
  endloop
endfacet
facet normal 0.0 0.0 1.0
  outer loop
    vertex 1422.9903810567664 139.6377309999954 29.999999999999986
    vertex 1425.529142706151 89.18218142265103 29.999999999999986
    vertex 1424.4888873943357 143.25544532345765 29.999999999999986
  endloop
endfacet
facet normal 0.0 0.0 1.0
  outer loop
    vertex 1424.4888873943357 143.25544532345765 29.999999999999986
    vertex 1425.529142706151 89.18218142265103 29.999999999999986
    vertex 1424.9999999999998 147.1377309999951 29.999999999999986
  endloop
endfacet
facet normal 0.0 0.0 1.0
  outer loop
    vertex 1394.4708572938484 205.09328057733921 29.999999999999986
    vertex 1395.511112605664 151.0200166765326 29.999999999999986
    vertex 1409.9999999999998 207.1377309999952 29.999999999999986
  endloop
endfacet
facet normal 0.0 0.0 1.0
  outer loop
    vertex 1395.511112605664 151.0200166765326 29.999999999999986
    vertex 1394.4708572938484 205.09328057733921 29.999999999999986
    vertex 1395.0 147.1377309999951 29.999999999999986
  endloop
endfacet
facet normal 0.0 0.0 1.0
  outer loop
    vertex 1409.9999999999998 207.1377309999952 29.999999999999986
    vertex 1395.511112605664 151.0200166765326 29.999999999999986
    vertex 1397.0096189432334 154.63773099999486 29.999999999999986
  endloop
endfacet
facet normal 0.0 0.0 1.0
  outer loop
    vertex 1409.9999999999998 207.1377309999952 29.999999999999986
    vertex 1397.0096189432334 154.63773099999486 29.999999999999986
    vertex 1399.3933982822018 157.74433271779313 29.999999999999986
  endloop
endfacet
facet normal 0.0 0.0 1.0
  outer loop
    vertex 1409.9999999999998 207.1377309999952 29.999999999999986
    vertex 1399.3933982822018 157.74433271779313 29.999999999999986
    vertex 1402.4999999999998 160.12811205676132 29.999999999999986
  endloop
endfacet
facet normal 0.0 0.0 1.0
  outer loop
    vertex 1409.9999999999998 207.1377309999952 29.999999999999986
    vertex 1402.4999999999998 160.12811205676132 29.999999999999986
    vertex 1406.117714323462 161.62661839433133 29.999999999999986
  endloop
endfacet
facet normal 0.0 0.0 1.0
  outer loop
    vertex 1409.9999999999998 207.1377309999952 29.999999999999986
    vertex 1406.117714323462 161.62661839433133 29.999999999999986
    vertex 1409.9999999999998 162.1377309999946 29.999999999999986
  endloop
endfacet
facet normal 0.0 0.0 1.0
  outer loop
    vertex 1409.9999999999998 207.1377309999952 29.999999999999986
    vertex 1409.9999999999998 162.1377309999946 29.999999999999986
    vertex 1413.8822856765378 161.62661839433133 29.999999999999986
  endloop
endfacet
facet normal 0.0 0.0 1.0
  outer loop
    vertex 1409.9999999999998 207.1377309999952 29.999999999999986
    vertex 1413.8822856765378 161.62661839433133 29.999999999999986
    vertex 1425.529142706151 205.09328057733921 29.999999999999986
  endloop
endfacet
facet normal 0.0 0.0 1.0
  outer loop
    vertex 1425.529142706151 205.09328057733921 29.999999999999986
    vertex 1413.8822856765378 161.62661839433133 29.999999999999986
    vertex 1417.4999999999995 160.12811205676132 29.999999999999986
  endloop
endfacet
facet normal 0.0 0.0 1.0
  outer loop
    vertex 1425.529142706151 205.09328057733921 29.999999999999986
    vertex 1417.4999999999995 160.12811205676132 29.999999999999986
    vertex 1420.606601717798 157.74433271779313 29.999999999999986
  endloop
endfacet
facet normal 0.0 0.0 1.0
  outer loop
    vertex 1425.529142706151 205.09328057733921 29.999999999999986
    vertex 1420.606601717798 157.74433271779313 29.999999999999986
    vertex 1422.9903810567664 154.63773099999486 29.999999999999986
  endloop
endfacet
facet normal 0.0 0.0 1.0
  outer loop
    vertex 1425.529142706151 205.09328057733921 29.999999999999986
    vertex 1422.9903810567664 154.63773099999486 29.999999999999986
    vertex 1424.4888873943357 151.0200166765326 29.999999999999986
  endloop
endfacet
facet normal 0.0 0.0 1.0
  outer loop
    vertex 1425.529142706151 205.09328057733921 29.999999999999986
    vertex 1424.4888873943357 151.0200166765326 29.999999999999986
    vertex 1424.9999999999998 147.1377309999951 29.999999999999986
  endloop
endfacet
facet normal 0.0 0.0 1.0
  outer loop
    vertex 1425.529142706151 205.09328057733921 29.999999999999986
    vertex 1424.9999999999998 147.1377309999951 29.999999999999986
    vertex 1425.529142706151 89.18218142265103 29.999999999999986
  endloop
endfacet
facet normal 0.0 0.0 1.0
  outer loop
    vertex 1425.529142706151 205.09328057733921 29.999999999999986
    vertex 1425.529142706151 89.18218142265103 29.999999999999986
    vertex 1440.0 95.17620677292894 29.999999999999986
  endloop
endfacet
facet normal 0.0 0.0 1.0
  outer loop
    vertex 1425.529142706151 205.09328057733921 29.999999999999986
    vertex 1440.0 95.17620677292894 29.999999999999986
    vertex 1440.0 199.09925522706132 29.999999999999986
  endloop
endfacet
facet normal 0.0 0.0 1.0
  outer loop
    vertex 1440.0 199.09925522706132 29.999999999999986
    vertex 1440.0 95.17620677292894 29.999999999999986
    vertex 1452.4264068711927 104.71132412880235 29.999999999999986
  endloop
endfacet
facet normal 0.0 0.0 1.0
  outer loop
    vertex 1440.0 199.09925522706132 29.999999999999986
    vertex 1452.4264068711927 104.71132412880235 29.999999999999986
    vertex 1452.4264068711927 189.5641378711879 29.999999999999986
  endloop
endfacet
facet normal 0.0 0.0 1.0
  outer loop
    vertex 1452.4264068711927 189.5641378711879 29.999999999999986
    vertex 1452.4264068711927 104.71132412880235 29.999999999999986
    vertex 1461.9615242270663 117.13773099999545 29.999999999999986
  endloop
endfacet
facet normal 0.0 0.0 1.0
  outer loop
    vertex 1452.4264068711927 189.5641378711879 29.999999999999986
    vertex 1461.9615242270663 117.13773099999545 29.999999999999986
    vertex 1461.961524227066 177.1377309999955 29.999999999999986
  endloop
endfacet
facet normal 0.0 0.0 1.0
  outer loop
    vertex 1461.961524227066 177.1377309999955 29.999999999999986
    vertex 1461.9615242270663 117.13773099999545 29.999999999999986
    vertex 1467.9555495773438 162.66687370614645 29.999999999999986
  endloop
endfacet
facet normal 0.0 0.0 1.0
  outer loop
    vertex 1467.9555495773438 162.66687370614645 29.999999999999986
    vertex 1461.9615242270663 117.13773099999545 29.999999999999986
    vertex 1467.9555495773438 131.6085882938438 29.999999999999986
  endloop
endfacet
facet normal 0.0 0.0 1.0
  outer loop
    vertex 1467.9555495773438 162.66687370614645 29.999999999999986
    vertex 1467.9555495773438 131.6085882938438 29.999999999999986
    vertex 1470.0 147.1377309999951 29.999999999999986
  endloop
endfacet
facet normal -0.7782019634672348 -0.59713536866653 -0.19450207079419007
  outer loop
    vertex 1353.4314575050778 90.56918850507407 10.0
    vertex 1325.147186257613 62.28491725760596 209.99999999999997
    vertex 1306.0769515458665 87.13773099999506 209.99999999999997
  endloop
endfacet
facet normal 0.1280334170297967 -0.97251035397082 -0.19450207079418205
  outer loop
    vertex 1409.9999999999998 27.13773099999426 209.99999999999997
    vertex 1410.0000000000014 67.13773099999815 10.0
    vertex 1441.0582854123024 31.22663184530404 209.99999999999997
  endloop
endfacet
facet normal 0.7660084843694543 0.5877789830772365 0.26028228700144235
  outer loop
    vertex 1358.0384757729337 117.13773099999473 29.999999999999986
    vertex 1315.6534687602377 92.66673579160415 209.99999999999997
    vertex 1332.9663798203417 70.10411082032182 209.99999999999997
  endloop
endfacet
facet normal 0.8920357733402635 0.3694933154395898 0.26028228700143574
  outer loop
    vertex 1352.0444504226557 131.6085882938438 29.999999999999986
    vertex 1304.7701178891082 118.94146906874458 209.99999999999997
    vertex 1315.6534687602377 92.66673579160415 209.99999999999997
  endloop
endfacet
facet normal 0.5877789830774381 -0.7660084843693149 0.2602822870013971
  outer loop
    vertex 1355.529004791614 241.48426223975147 209.99999999999997
    vertex 1367.573593128807 189.5641378711879 29.999999999999986
    vertex 1379.9999999999998 199.09925522706132 29.999999999999986
  endloop
endfacet
facet normal 0.9062353804970718 -0.3753749853041725 -0.1945020707941687
  outer loop
    vertex 1487.2740661031264 126.43220739179674 10.0
    vertex 1525.911099154689 116.0794455876932 209.99999999999997
    vertex 1513.9230484541351 87.13773099999506 209.99999999999997
  endloop
endfacet
facet normal 0.76600848436929 0.5877789830774377 0.26028228700147127
  outer loop
    vertex 1358.0384757729337 117.13773099999473 29.999999999999986
    vertex 1332.9663798203417 70.10411082032182 209.99999999999997
    vertex 1367.573593128807 104.71132412880235 29.999999999999986
  endloop
endfacet
facet normal -0.5877789830774313 0.7660084843693088 0.26028228700143097
  outer loop
    vertex 1464.4709952083817 52.79119976022723 209.99999999999997
    vertex 1452.4264068711927 104.71132412880235 29.999999999999986
    vertex 1440.0 95.17620677292894 29.999999999999986
  endloop
endfacet
facet normal 0.3694933154395249 0.8920357733402818 0.26028228700146516
  outer loop
    vertex 1355.5290047916121 52.79119976022362 209.99999999999997
    vertex 1394.4708572938484 89.18218142265103 29.999999999999986
    vertex 1379.9999999999998 95.17620677292894 29.999999999999986
  endloop
endfacet
facet normal 0.3694933154398695 0.8920357733401266 0.26028228700150835
  outer loop
    vertex 1381.8037380687608 41.907848889080654 209.99999999999997
    vertex 1394.4708572938484 89.18218142265103 29.999999999999986
    vertex 1355.5290047916121 52.79119976022362 209.99999999999997
  endloop
endfacet
facet normal -0.5877789830774363 -0.7660084843693119 0.26028228700141115
  outer loop
    vertex 1487.0336201796563 224.1713511796511 209.99999999999997
    vertex 1440.0 199.09925522706132 29.999999999999986
    vertex 1452.4264068711927 189.5641378711879 29.999999999999986
  endloop
endfacet
facet normal 0.9572722985169441 0.12602728897105486 0.26028228700142736
  outer loop
    vertex 1349.9999999999998 147.1377309999951 29.999999999999986
    vertex 1301.0580095832302 147.13773099998213 209.99999999999997
    vertex 1304.7701178891082 118.94146906874458 209.99999999999997
  endloop
endfacet
facet normal 0.12602728897056711 0.9572722985169947 0.2602822870014766
  outer loop
    vertex 1409.9999999999966 38.1957405832175 209.99999999999997
    vertex 1409.9999999999998 87.13773099999506 29.999999999999986
    vertex 1381.8037380687608 41.907848889080654 209.99999999999997
  endloop
endfacet
facet normal -0.892035773340299 -0.3694933154395263 0.2602822870014048
  outer loop
    vertex 1504.3465312397598 201.6087262083796 209.99999999999997
    vertex 1461.961524227066 177.1377309999955 29.999999999999986
    vertex 1467.9555495773438 162.66687370614645 29.999999999999986
  endloop
endfacet
facet normal 0.5877789830773793 -0.7660084843693574 0.2602822870014054
  outer loop
    vertex 1332.9663798203399 224.1713511796475 209.99999999999997
    vertex 1367.573593128807 189.5641378711879 29.999999999999986
    vertex 1355.529004791614 241.48426223975147 209.99999999999997
  endloop
endfacet
facet normal -0.8920357733403095 0.3694933154394946 0.2602822870014141
  outer loop
    vertex 1515.2298821108902 118.94146906875541 209.99999999999997
    vertex 1461.9615242270663 117.13773099999545 29.999999999999986
    vertex 1504.346531239761 92.66673579160776 209.99999999999997
  endloop
endfacet
facet normal 0.12602728897052246 -0.9572722985170279 0.2602822870013768
  outer loop
    vertex 1381.8037380687608 252.36761311088287 209.99999999999997
    vertex 1394.4708572938484 205.09328057733921 29.999999999999986
    vertex 1409.9999999999966 256.0797214167446 209.99999999999997
  endloop
endfacet
facet normal -0.7660084843693977 0.5877789830773126 0.2602822870014373
  outer loop
    vertex 1452.4264068711927 104.71132412880235 29.999999999999986
    vertex 1487.0336201796563 70.10411082032904 209.99999999999997
    vertex 1504.346531239761 92.66673579160776 209.99999999999997
  endloop
endfacet
facet normal 0.12803341702986415 -0.9725103539708093 -0.19450207079419063
  outer loop
    vertex 1441.0582854123024 31.22663184530404 209.99999999999997
    vertex 1410.0000000000014 67.13773099999815 10.0
    vertex 1430.7055236082028 69.86366489687279 10.0
  endloop
endfacet
facet normal -0.9572722985169556 0.12602728897098786 0.2602822870014168
  outer loop
    vertex 1470.0 147.1377309999951 29.999999999999986
    vertex 1467.9555495773438 131.6085882938438 29.999999999999986
    vertex 1518.941990416768 147.1377309999908 209.99999999999997
  endloop
endfacet
facet normal -0.3694933154395829 0.8920357733402653 0.2602822870014396
  outer loop
    vertex 1464.4709952083817 52.79119976022723 209.99999999999997
    vertex 1440.0 95.17620677292894 29.999999999999986
    vertex 1438.1962619312312 41.90784888909365 209.99999999999997
  endloop
endfacet
facet normal -0.95727229851695 -0.126027288971046 0.26028228700140926
  outer loop
    vertex 1515.2298821108902 175.3339929312305 209.99999999999997
    vertex 1470.0 147.1377309999951 29.999999999999986
    vertex 1518.941990416768 147.1377309999908 209.99999999999997
  endloop
endfacet
facet normal -0.12602728897021506 -0.9572722985170771 0.2602822870013447
  outer loop
    vertex 1409.9999999999966 256.0797214167446 209.99999999999997
    vertex 1409.9999999999998 207.1377309999952 29.999999999999986
    vertex 1438.1962619312312 252.36761311089228 209.99999999999997
  endloop
endfacet
facet normal 0.1260272889709912 -0.9572722985169806 0.26028228700132305
  outer loop
    vertex 1409.9999999999966 256.0797214167446 209.99999999999997
    vertex 1394.4708572938484 205.09328057733921 29.999999999999986
    vertex 1409.9999999999998 207.1377309999952 29.999999999999986
  endloop
endfacet
facet normal -0.9062353804970721 0.3753749853041745 -0.19450207079416326
  outer loop
    vertex 1306.0769515458665 207.1377309999952 209.99999999999997
    vertex 1332.725933896876 167.8432546081993 10.0
    vertex 1294.088900845312 178.19601641229633 209.99999999999997
  endloop
endfacet
facet normal -0.12602728897100623 0.9572722985169424 0.26028228700145606
  outer loop
    vertex 1438.1962619312312 41.90784888909365 209.99999999999997
    vertex 1425.529142706151 89.18218142265103 29.999999999999986
    vertex 1409.9999999999966 38.1957405832175 209.99999999999997
  endloop
endfacet
facet normal -0.7660084843693078 0.5877789830774376 0.2602822870014197
  outer loop
    vertex 1461.9615242270663 117.13773099999545 29.999999999999986
    vertex 1452.4264068711927 104.71132412880235 29.999999999999986
    vertex 1504.346531239761 92.66673579160776 209.99999999999997
  endloop
endfacet
facet normal 0.7660084843693108 -0.5877789830774399 0.2602822870014062
  outer loop
    vertex 1315.6534687602334 201.60872620837094 209.99999999999997
    vertex 1358.0384757729332 177.1377309999948 29.999999999999986
    vertex 1367.573593128807 189.5641378711879 29.999999999999986
  endloop
endfacet
facet normal 0.8920357733402935 0.3694933154395236 0.2602822870014274
  outer loop
    vertex 1352.0444504226557 131.6085882938438 29.999999999999986
    vertex 1315.6534687602377 92.66673579160415 209.99999999999997
    vertex 1358.0384757729337 117.13773099999473 29.999999999999986
  endloop
endfacet
facet normal -0.8920357733403063 -0.36949331543951003 0.26028228700140305
  outer loop
    vertex 1504.3465312397598 201.6087262083796 209.99999999999997
    vertex 1467.9555495773438 162.66687370614645 29.999999999999986
    vertex 1515.2298821108902 175.3339929312305 209.99999999999997
  endloop
endfacet
facet normal 0.9725103539708246 -0.12803341702980037 -0.1945020707941559
  outer loop
    vertex 1490.0000000000011 147.137730999998 10.0
    vertex 1529.9999999999989 147.1377309999951 209.99999999999997
    vertex 1525.911099154689 116.0794455876932 209.99999999999997
  endloop
endfacet
facet normal 0.9572722985169629 -0.12602728897092513 0.26028228700141987
  outer loop
    vertex 1304.7701178891045 175.33399293122184 209.99999999999997
    vertex 1301.0580095832302 147.13773099998213 209.99999999999997
    vertex 1352.0444504226557 162.66687370614645 29.999999999999986
  endloop
endfacet
facet normal 0.8920357733403204 -0.36949331543946673 0.2602822870014159
  outer loop
    vertex 1315.6534687602334 201.60872620837094 209.99999999999997
    vertex 1304.7701178891045 175.33399293122184 209.99999999999997
    vertex 1358.0384757729332 177.1377309999948 29.999999999999986
  endloop
endfacet
facet normal -0.3694933154395278 0.8920357733402863 0.2602822870014463
  outer loop
    vertex 1438.1962619312312 41.90784888909365 209.99999999999997
    vertex 1440.0 95.17620677292894 29.999999999999986
    vertex 1425.529142706151 89.18218142265103 29.999999999999986
  endloop
endfacet
facet normal 0.3694933154395329 -0.8920357733402983 0.26028228700139744
  outer loop
    vertex 1381.8037380687608 252.36761311088287 209.99999999999997
    vertex 1379.9999999999998 199.09925522706132 29.999999999999986
    vertex 1394.4708572938484 205.09328057733921 29.999999999999986
  endloop
endfacet
facet normal 0.8920357733403003 -0.36949331543952 0.2602822870014094
  outer loop
    vertex 1358.0384757729332 177.1377309999948 29.999999999999986
    vertex 1304.7701178891045 175.33399293122184 209.99999999999997
    vertex 1352.0444504226557 162.66687370614645 29.999999999999986
  endloop
endfacet
facet normal 0.9725103539708141 -0.12803341702986695 -0.19450207079416434
  outer loop
    vertex 1490.0000000000011 147.137730999998 10.0
    vertex 1525.911099154689 116.0794455876932 209.99999999999997
    vertex 1487.2740661031264 126.43220739179674 10.0
  endloop
endfacet
facet normal -0.9914448613738085 0.1305261922200673 0.0
  outer loop
    vertex 1395.511112605664 151.0200166765326 269.99999999999994
    vertex 1395.0 147.1377309999951 29.999999999999986
    vertex 1395.0 147.1377309999951 269.99999999999994
  endloop
endfacet
facet normal -0.9914448613738085 0.1305261922200673 0.0
  outer loop
    vertex 1395.0 147.1377309999951 29.999999999999986
    vertex 1395.511112605664 151.0200166765326 269.99999999999994
    vertex 1395.511112605664 151.0200166765326 29.999999999999986
  endloop
endfacet
facet normal -0.12803341702979518 -0.9725103539708183 -0.19450207079419077
  outer loop
    vertex 1378.9417145876969 31.22663184530404 209.99999999999997
    vertex 1389.2944763917997 69.86366489687279 10.0
    vertex 1409.9999999999998 27.13773099999426 209.99999999999997
  endloop
endfacet
facet normal -0.9238795325113033 0.3826834323650502 0.0
  outer loop
    vertex 1397.0096189432334 154.63773099999486 269.99999999999994
    vertex 1395.511112605664 151.0200166765326 29.999999999999986
    vertex 1395.511112605664 151.0200166765326 269.99999999999994
  endloop
endfacet
facet normal -0.9238795325113033 0.3826834323650502 0.0
  outer loop
    vertex 1395.511112605664 151.0200166765326 29.999999999999986
    vertex 1397.0096189432334 154.63773099999486 269.99999999999994
    vertex 1397.0096189432334 154.63773099999486 29.999999999999986
  endloop
endfacet
facet normal -0.3694933154395327 -0.8920357733402955 0.2602822870014077
  outer loop
    vertex 1464.4709952083817 241.48426223975653 209.99999999999997
    vertex 1425.529142706151 205.09328057733921 29.999999999999986
    vertex 1440.0 199.09925522706132 29.999999999999986
  endloop
endfacet
facet normal -0.9572722985169593 -0.1260272889709883 0.26028228700140266
  outer loop
    vertex 1515.2298821108902 175.3339929312305 209.99999999999997
    vertex 1467.9555495773438 162.66687370614645 29.999999999999986
    vertex 1470.0 147.1377309999951 29.999999999999986
  endloop
endfacet
facet normal -0.12803341702986387 -0.972510353970811 -0.1945020707941821
  outer loop
    vertex 1409.9999999999998 27.13773099999426 209.99999999999997
    vertex 1389.2944763917997 69.86366489687279 10.0
    vertex 1410.0000000000014 67.13773099999815 10.0
  endloop
endfacet
facet normal -0.3694933154396479 -0.8920357733402435 0.26028228700142214
  outer loop
    vertex 1438.1962619312312 252.36761311089228 209.99999999999997
    vertex 1425.529142706151 205.09328057733921 29.999999999999986
    vertex 1464.4709952083817 241.48426223975653 209.99999999999997
  endloop
endfacet
facet normal -0.7782019634671836 -0.5971353686666002 -0.19450207079417914
  outer loop
    vertex 1340.7179676972462 107.13773099999773 10.0
    vertex 1353.4314575050778 90.56918850507407 10.0
    vertex 1306.0769515458665 87.13773099999506 209.99999999999997
  endloop
endfacet
endsolid arena
