solid arena
facet normal 0.12602728897052246 -0.9572722985170279 0.2602822870013768
  outer loop
    vertex 107.75440006876097 1296.2019911108828 209.99999999999997
    vertex 120.42151929384865 1248.9276585773391 29.999999999999986
    vertex 135.95066199999673 1299.9140994167444 209.99999999999997
  endloop
endfacet
facet normal 0.9572722985169566 -0.12602728897098778 0.2602822870014127
  outer loop
    vertex 77.99511242265588 1206.5012517061464 29.999999999999986
    vertex 27.008671583230292 1190.972108999982 209.99999999999997
    vertex 75.95066199999991 1190.972108999995 29.999999999999986
  endloop
endfacet
facet normal -0.7660084843693311 -0.5877789830774128 0.26028228700140693
  outer loop
    vertex 212.9842821796563 1268.0057291796509 209.99999999999997
    vertex 187.91218622706617 1220.9721089999953 29.999999999999986
    vertex 230.29719323975993 1245.4431042083795 209.99999999999997
  endloop
endfacet
facet normal -0.587778983077321 0.7660084843693882 0.2602822870014466
  outer loop
    vertex 212.9842821796563 1113.938488820329 209.99999999999997
    vertex 178.37706887119276 1148.545702128802 29.999999999999986
    vertex 190.42165720838193 1096.625577760227 209.99999999999997
  endloop
endfacet
facet normal 0.5877789830773045 0.7660084843693935 0.2602822870014678
  outer loop
    vertex 81.47966679161225 1096.6255777602235 209.99999999999997
    vertex 105.95066199999994 1139.0105847729287 29.999999999999986
    vertex 58.91704182034183 1113.9384888203217 209.99999999999997
  endloop
endfacet
facet normal 0.9572722985169548 0.12602728897098772 0.2602822870014196
  outer loop
    vertex 75.95066199999991 1190.972108999995 29.999999999999986
    vertex 30.720779889108243 1162.7758470687445 209.99999999999997
    vertex 77.99511242265588 1175.4429662938437 29.999999999999986
  endloop
endfacet
facet normal -0.12602728897100623 0.9572722985169424 0.26028228700145606
  outer loop
    vertex 164.14692393123138 1085.7422268890934 209.99999999999997
    vertex 151.4798047061513 1133.016559422651 29.999999999999986
    vertex 135.95066199999673 1082.0301185832172 209.99999999999997
  endloop
endfacet
facet normal -0.7660084843693022 -0.5877789830774481 0.26028228700141204
  outer loop
    vertex 212.9842821796563 1268.0057291796509 209.99999999999997
    vertex 178.37706887119276 1233.3985158711878 29.999999999999986
    vertex 187.91218622706617 1220.9721089999953 29.999999999999986
  endloop
endfacet
facet normal 0.1260272889709851 0.9572722985169265 0.26028228700152484
  outer loop
    vertex 107.75440006876097 1085.7422268890805 209.99999999999997
    vertex 135.95066199999997 1130.9721089999948 29.999999999999986
    vertex 120.42151929384865 1133.016559422651 29.999999999999986
  endloop
endfacet
facet normal 0.76600848436929 0.5877789830774377 0.26028228700147127
  outer loop
    vertex 83.98913777293377 1160.9721089999946 29.999999999999986
    vertex 58.91704182034183 1113.9384888203217 209.99999999999997
    vertex 93.5242551288072 1148.545702128802 29.999999999999986
  endloop
endfacet
facet normal -0.3694933154395278 0.8920357733402863 0.2602822870014463
  outer loop
    vertex 164.14692393123138 1085.7422268890934 209.99999999999997
    vertex 165.950662 1139.0105847729287 29.999999999999986
    vertex 151.4798047061513 1133.016559422651 29.999999999999986
  endloop
endfacet
facet normal 0.1260272889709912 -0.9572722985169806 0.26028228700132305
  outer loop
    vertex 135.95066199999673 1299.9140994167444 209.99999999999997
    vertex 120.42151929384865 1248.9276585773391 29.999999999999986
    vertex 135.95066199999997 1250.972108999995 29.999999999999986
  endloop
endfacet
facet normal -0.12602728897098642 0.9572722985169444 0.26028228700145833
  outer loop
    vertex 135.95066199999673 1082.0301185832172 209.99999999999997
    vertex 151.4798047061513 1133.016559422651 29.999999999999986
    vertex 135.95066199999997 1130.9721089999948 29.999999999999986
  endloop
endfacet
facet normal 0.9572722985169629 -0.12602728897092513 0.26028228700141987
  outer loop
    vertex 30.720779889104634 1219.1683709312217 209.99999999999997
    vertex 27.008671583230292 1190.972108999982 209.99999999999997
    vertex 77.99511242265588 1206.5012517061464 29.999999999999986
  endloop
endfacet
facet normal -0.5877789830774313 0.7660084843693088 0.26028228700143097
  outer loop
    vertex 190.42165720838193 1096.625577760227 209.99999999999997
    vertex 178.37706887119276 1148.545702128802 29.999999999999986
    vertex 165.950662 1139.0105847729287 29.999999999999986
  endloop
endfacet
facet normal 0.8920357733402935 0.3694933154395236 0.2602822870014274
  outer loop
    vertex 77.99511242265588 1175.4429662938437 29.999999999999986
    vertex 41.60413076023785 1136.501113791604 209.99999999999997
    vertex 83.98913777293377 1160.9721089999946 29.999999999999986
  endloop
endfacet
facet normal -0.3694933154395829 0.8920357733402653 0.2602822870014396
  outer loop
    vertex 190.42165720838193 1096.625577760227 209.99999999999997
    vertex 165.950662 1139.0105847729287 29.999999999999986
    vertex 164.14692393123138 1085.7422268890934 209.99999999999997
  endloop
endfacet
facet normal 0.9572722985169441 0.12602728897105486 0.26028228700142736
  outer loop
    vertex 75.95066199999991 1190.972108999995 29.999999999999986
    vertex 27.008671583230292 1190.972108999982 209.99999999999997
    vertex 30.720779889108243 1162.7758470687445 209.99999999999997
  endloop
endfacet
facet normal 0.7660084843694543 0.5877789830772365 0.26028228700144235
  outer loop
    vertex 83.98913777293377 1160.9721089999946 29.999999999999986
    vertex 41.60413076023785 1136.501113791604 209.99999999999997
    vertex 58.91704182034183 1113.9384888203217 209.99999999999997
  endloop
endfacet
facet normal 0.7660084843693461 -0.5877789830773906 0.26028228700141287
  outer loop
    vertex 58.917041820340025 1268.0057291796472 209.99999999999997
    vertex 41.60413076023352 1245.4431042083709 209.99999999999997
    vertex 93.5242551288072 1233.3985158711878 29.999999999999986
  endloop
endfacet
facet normal 0.38268343236520747 -0.923879532511238 0.0
  outer loop
    vertex 143.45066200000008 1177.9817279432289 269.99999999999994
    vertex 139.8329476765378 1176.4832216056589 29.999999999999986
    vertex 143.45066200000008 1177.9817279432289 29.999999999999986
  endloop
endfacet
facet normal 0.38268343236520747 -0.923879532511238 0.0
  outer loop
    vertex 139.8329476765378 1176.4832216056589 29.999999999999986
    vertex 143.45066200000008 1177.9817279432289 269.99999999999994
    vertex 139.8329476765378 1176.4832216056589 269.99999999999994
  endloop
endfacet
facet normal 0.13052619221987416 0.9914448613738339 0.0
  outer loop
    vertex 135.95066199999997 1205.9721089999944 269.99999999999994
    vertex 139.8329476765378 1205.4609963943312 29.999999999999986
    vertex 135.95066199999997 1205.9721089999944 29.999999999999986
  endloop
endfacet
facet normal 0.13052619221987416 0.9914448613738339 0.0
  outer loop
    vertex 139.8329476765378 1205.4609963943312 29.999999999999986
    vertex 135.95066199999997 1205.9721089999944 269.99999999999994
    vertex 139.8329476765378 1205.4609963943312 269.99999999999994
  endloop
endfacet
facet normal -0.13052619221987416 -0.9914448613738339 -0.0
  outer loop
    vertex 135.95066199999997 1175.9721089999955 269.99999999999994
    vertex 132.06837632346213 1176.4832216056589 29.999999999999986
    vertex 135.95066199999997 1175.9721089999955 29.999999999999986
  endloop
endfacet
facet normal -0.13052619221987416 -0.9914448613738339 -0.0
  outer loop
    vertex 132.06837632346213 1176.4832216056589 29.999999999999986
    vertex 135.95066199999997 1175.9721089999955 269.99999999999994
    vertex 132.06837632346213 1176.4832216056589 269.99999999999994
  endloop
endfacet
facet normal 0.9238795325113033 0.3826834323650502 0.0
  outer loop
    vertex 148.94104305676652 1198.4721089999948 29.999999999999986
    vertex 150.4395493943358 1194.8543946765324 269.99999999999994
    vertex 150.4395493943358 1194.8543946765324 29.999999999999986
  endloop
endfacet
facet normal 0.9238795325113033 0.3826834323650502 0.0
  outer loop
    vertex 150.4395493943358 1194.8543946765324 269.99999999999994
    vertex 148.94104305676652 1198.4721089999948 29.999999999999986
    vertex 148.94104305676652 1198.4721089999948 269.99999999999994
  endloop
endfacet
facet normal 0.0 0.0 1.0
  outer loop
    vertex 121.46177460566413 1187.0898233234575 269.99999999999994
    vertex 121.46177460566413 1194.8543946765324 269.99999999999994
    vertex 120.95066200000014 1190.972108999995 269.99999999999994
  endloop
endfacet
facet normal 0.0 0.0 1.0
  outer loop
    vertex 121.46177460566413 1194.8543946765324 269.99999999999994
    vertex 121.46177460566413 1187.0898233234575 269.99999999999994
    vertex 122.96028094323343 1183.4721089999953 269.99999999999994
  endloop
endfacet
facet normal 0.0 0.0 1.0
  outer loop
    vertex 121.46177460566413 1194.8543946765324 269.99999999999994
    vertex 122.96028094323343 1183.4721089999953 269.99999999999994
    vertex 122.96028094323343 1198.4721089999948 269.99999999999994
  endloop
endfacet
facet normal 0.0 0.0 1.0
  outer loop
    vertex 122.96028094323343 1198.4721089999948 269.99999999999994
    vertex 122.96028094323343 1183.4721089999953 269.99999999999994
    vertex 125.34406028220197 1180.3655072821969 269.99999999999994
  endloop
endfacet
facet normal 0.0 0.0 1.0
  outer loop
    vertex 122.96028094323343 1198.4721089999948 269.99999999999994
    vertex 125.34406028220197 1180.3655072821969 269.99999999999994
    vertex 125.34406028220197 1201.578710717793 269.99999999999994
  endloop
endfacet
facet normal 0.0 0.0 1.0
  outer loop
    vertex 125.34406028220197 1201.578710717793 269.99999999999994
    vertex 125.34406028220197 1180.3655072821969 269.99999999999994
    vertex 128.45066200000022 1177.9817279432289 269.99999999999994
  endloop
endfacet
facet normal 0.0 0.0 1.0
  outer loop
    vertex 125.34406028220197 1201.578710717793 269.99999999999994
    vertex 128.45066200000022 1177.9817279432289 269.99999999999994
    vertex 128.45066199999988 1203.9624900567612 269.99999999999994
  endloop
endfacet
facet normal 0.0 0.0 1.0
  outer loop
    vertex 128.45066199999988 1203.9624900567612 269.99999999999994
    vertex 128.45066200000022 1177.9817279432289 269.99999999999994
    vertex 132.06837632346213 1205.4609963943312 269.99999999999994
  endloop
endfacet
facet normal 0.0 0.0 1.0
  outer loop
    vertex 132.06837632346213 1205.4609963943312 269.99999999999994
    vertex 128.45066200000022 1177.9817279432289 269.99999999999994
    vertex 132.06837632346213 1176.4832216056589 269.99999999999994
  endloop
endfacet
facet normal 0.0 0.0 1.0
  outer loop
    vertex 132.06837632346213 1205.4609963943312 269.99999999999994
    vertex 132.06837632346213 1176.4832216056589 269.99999999999994
    vertex 135.95066199999997 1175.9721089999955 269.99999999999994
  endloop
endfacet
facet normal 0.0 0.0 1.0
  outer loop
    vertex 132.06837632346213 1205.4609963943312 269.99999999999994
    vertex 135.95066199999997 1175.9721089999955 269.99999999999994
    vertex 135.95066199999997 1205.9721089999944 269.99999999999994
  endloop
endfacet
facet normal 0.0 0.0 1.0
  outer loop
    vertex 135.95066199999997 1205.9721089999944 269.99999999999994
    vertex 135.95066199999997 1175.9721089999955 269.99999999999994
    vertex 139.8329476765378 1176.4832216056589 269.99999999999994
  endloop
endfacet
facet normal 0.0 0.0 1.0
  outer loop
    vertex 135.95066199999997 1205.9721089999944 269.99999999999994
    vertex 139.8329476765378 1176.4832216056589 269.99999999999994
    vertex 139.8329476765378 1205.4609963943312 269.99999999999994
  endloop
endfacet
facet normal 0.0 0.0 1.0
  outer loop
    vertex 139.8329476765378 1205.4609963943312 269.99999999999994
    vertex 139.8329476765378 1176.4832216056589 269.99999999999994
    vertex 143.45066200000008 1177.9817279432289 269.99999999999994
  endloop
endfacet
facet normal 0.0 0.0 1.0
  outer loop
    vertex 139.8329476765378 1205.4609963943312 269.99999999999994
    vertex 143.45066200000008 1177.9817279432289 269.99999999999994
    vertex 143.4506619999997 1203.9624900567612 269.99999999999994
  endloop
endfacet
facet normal 0.0 0.0 1.0
  outer loop
    vertex 143.4506619999997 1203.9624900567612 269.99999999999994
    vertex 143.45066200000008 1177.9817279432289 269.99999999999994
    vertex 146.55726371779798 1201.578710717793 269.99999999999994
  endloop
endfacet
facet normal 0.0 0.0 1.0
  outer loop
    vertex 146.55726371779798 1201.578710717793 269.99999999999994
    vertex 143.45066200000008 1177.9817279432289 269.99999999999994
    vertex 146.55726371779798 1180.3655072821969 269.99999999999994
  endloop
endfacet
facet normal 0.0 0.0 1.0
  outer loop
    vertex 146.55726371779798 1201.578710717793 269.99999999999994
    vertex 146.55726371779798 1180.3655072821969 269.99999999999994
    vertex 148.94104305676652 1183.4721089999953 269.99999999999994
  endloop
endfacet
facet normal 0.0 0.0 1.0
  outer loop
    vertex 146.55726371779798 1201.578710717793 269.99999999999994
    vertex 148.94104305676652 1183.4721089999953 269.99999999999994
    vertex 148.94104305676652 1198.4721089999948 269.99999999999994
  endloop
endfacet
facet normal 0.0 0.0 1.0
  outer loop
    vertex 148.94104305676652 1198.4721089999948 269.99999999999994
    vertex 148.94104305676652 1183.4721089999953 269.99999999999994
    vertex 150.4395493943358 1187.0898233234575 269.99999999999994
  endloop
endfacet
facet normal 0.0 0.0 1.0
  outer loop
    vertex 148.94104305676652 1198.4721089999948 269.99999999999994
    vertex 150.4395493943358 1187.0898233234575 269.99999999999994
    vertex 150.4395493943358 1194.8543946765324 269.99999999999994
  endloop
endfacet
facet normal 0.0 0.0 1.0
  outer loop
    vertex 150.4395493943358 1194.8543946765324 269.99999999999994
    vertex 150.4395493943358 1187.0898233234575 269.99999999999994
    vertex 150.95066199999982 1190.972108999995 269.99999999999994
  endloop
endfacet
facet normal -0.6087614290087264 0.793353340291231 0.0
  outer loop
    vertex 125.34406028220197 1201.578710717793 269.99999999999994
    vertex 128.45066199999988 1203.9624900567612 29.999999999999986
    vertex 125.34406028220197 1201.578710717793 29.999999999999986
  endloop
endfacet
facet normal -0.6087614290087264 0.793353340291231 0.0
  outer loop
    vertex 128.45066199999988 1203.9624900567612 29.999999999999986
    vertex 125.34406028220197 1201.578710717793 269.99999999999994
    vertex 128.45066199999988 1203.9624900567612 269.99999999999994
  endloop
endfacet
facet normal 0.7933533402912204 0.6087614290087399 0.0
  outer loop
    vertex 146.55726371779798 1201.578710717793 29.999999999999986
    vertex 148.94104305676652 1198.4721089999948 269.99999999999994
    vertex 148.94104305676652 1198.4721089999948 29.999999999999986
  endloop
endfacet
facet normal 0.7933533402912204 0.6087614290087399 0.0
  outer loop
    vertex 148.94104305676652 1198.4721089999948 269.99999999999994
    vertex 146.55726371779798 1201.578710717793 29.999999999999986
    vertex 146.55726371779798 1201.578710717793 269.99999999999994
  endloop
endfacet
facet normal 0.7933533402912204 -0.6087614290087399 0.0
  outer loop
    vertex 148.94104305676652 1183.4721089999953 29.999999999999986
    vertex 146.55726371779798 1180.3655072821969 269.99999999999994
    vertex 146.55726371779798 1180.3655072821969 29.999999999999986
  endloop
endfacet
facet normal 0.7933533402912204 -0.6087614290087399 0.0
  outer loop
    vertex 146.55726371779798 1180.3655072821969 269.99999999999994
    vertex 148.94104305676652 1183.4721089999953 29.999999999999986
    vertex 148.94104305676652 1183.4721089999953 269.99999999999994
  endloop
endfacet
facet normal 0.6087614290087264 -0.793353340291231 0.0
  outer loop
    vertex 146.55726371779798 1180.3655072821969 269.99999999999994
    vertex 143.45066200000008 1177.9817279432289 29.999999999999986
    vertex 146.55726371779798 1180.3655072821969 29.999999999999986
  endloop
endfacet
facet normal 0.6087614290087264 -0.793353340291231 0.0
  outer loop
    vertex 143.45066200000008 1177.9817279432289 29.999999999999986
    vertex 146.55726371779798 1180.3655072821969 269.99999999999994
    vertex 143.45066200000008 1177.9817279432289 269.99999999999994
  endloop
endfacet
facet normal 0.13052619221987416 -0.9914448613738339 0.0
  outer loop
    vertex 139.8329476765378 1176.4832216056589 269.99999999999994
    vertex 135.95066199999997 1175.9721089999955 29.999999999999986
    vertex 139.8329476765378 1176.4832216056589 29.999999999999986
  endloop
endfacet
facet normal 0.13052619221987416 -0.9914448613738339 0.0
  outer loop
    vertex 135.95066199999997 1175.9721089999955 29.999999999999986
    vertex 139.8329476765378 1176.4832216056589 269.99999999999994
    vertex 135.95066199999997 1175.9721089999955 269.99999999999994
  endloop
endfacet
facet normal 0.9914448613738085 0.1305261922200673 0.0
  outer loop
    vertex 150.4395493943358 1194.8543946765324 29.999999999999986
    vertex 150.95066199999982 1190.972108999995 269.99999999999994
    vertex 150.95066199999982 1190.972108999995 29.999999999999986
  endloop
endfacet
facet normal 0.9914448613738085 0.1305261922200673 0.0
  outer loop
    vertex 150.95066199999982 1190.972108999995 269.99999999999994
    vertex 150.4395493943358 1194.8543946765324 29.999999999999986
    vertex 150.4395493943358 1194.8543946765324 269.99999999999994
  endloop
endfacet
facet normal 0.9914448613738085 -0.1305261922200673 0.0
  outer loop
    vertex 150.95066199999982 1190.972108999995 29.999999999999986
    vertex 150.4395493943358 1187.0898233234575 269.99999999999994
    vertex 150.4395493943358 1187.0898233234575 29.999999999999986
  endloop
endfacet
facet normal 0.9914448613738085 -0.1305261922200673 0.0
  outer loop
    vertex 150.4395493943358 1187.0898233234575 269.99999999999994
    vertex 150.95066199999982 1190.972108999995 29.999999999999986
    vertex 150.95066199999982 1190.972108999995 269.99999999999994
  endloop
endfacet
facet normal -0.38268343236524016 -0.9238795325112247 -0.0
  outer loop
    vertex 132.06837632346213 1176.4832216056589 269.99999999999994
    vertex 128.45066200000022 1177.9817279432289 29.999999999999986
    vertex 132.06837632346213 1176.4832216056589 29.999999999999986
  endloop
endfacet
facet normal -0.38268343236524016 -0.9238795325112247 -0.0
  outer loop
    vertex 128.45066200000022 1177.9817279432289 29.999999999999986
    vertex 132.06837632346213 1176.4832216056589 269.99999999999994
    vertex 128.45066200000022 1177.9817279432289 269.99999999999994
  endloop
endfacet
facet normal -0.5877789830774363 -0.7660084843693119 0.26028228700141115
  outer loop
    vertex 212.9842821796563 1268.0057291796509 209.99999999999997
    vertex 165.950662 1242.9336332270611 29.999999999999986
    vertex 178.37706887119276 1233.3985158711878 29.999999999999986
  endloop
endfacet
facet normal -0.3694933154395327 -0.8920357733402955 0.2602822870014077
  outer loop
    vertex 190.42165720838193 1285.3186402397564 209.99999999999997
    vertex 151.4798047061513 1248.9276585773391 29.999999999999986
    vertex 165.950662 1242.9336332270611 29.999999999999986
  endloop
endfacet
facet normal -0.9572722985169478 0.12602728897106497 0.260282287001408
  outer loop
    vertex 244.89265241676821 1190.9721089999907 209.99999999999997
    vertex 193.90621157734407 1175.4429662938437 29.999999999999986
    vertex 241.18054411089025 1162.7758470687552 209.99999999999997
  endloop
endfacet
facet normal -0.6087614290086819 -0.7933533402912651 -0.0
  outer loop
    vertex 128.45066200000022 1177.9817279432289 269.99999999999994
    vertex 125.34406028220197 1180.3655072821969 29.999999999999986
    vertex 128.45066200000022 1177.9817279432289 29.999999999999986
  endloop
endfacet
facet normal -0.6087614290086819 -0.7933533402912651 -0.0
  outer loop
    vertex 125.34406028220197 1180.3655072821969 29.999999999999986
    vertex 128.45066200000022 1177.9817279432289 269.99999999999994
    vertex 125.34406028220197 1180.3655072821969 269.99999999999994
  endloop
endfacet
facet normal -0.12803341702995122 0.9725103539708025 -0.19450207079416632
  outer loop
    vertex 135.95066199999997 1310.9721089999987 209.99999999999997
    vertex 135.95066200000142 1270.9721089999978 10.0
    vertex 104.89237658769697 1306.8832081546839 209.99999999999997
  endloop
endfacet
facet normal 0.5971353686666603 0.7782019634671435 -0.19450207079415505
  outer loop
    vertex 195.95066200000113 1294.8951574541302 209.99999999999997
    vertex 220.80347574238624 1275.8249227423812 209.99999999999997
    vertex 192.519204494925 1247.5406514949218 10.0
  endloop
endfacet
facet normal 0.5971353686666603 0.7782019634671435 -0.19450207079415505
  outer loop
    vertex 220.80347574238624 1275.8249227423812 209.99999999999997
    vertex 195.95066200000113 1294.8951574541302 209.99999999999997
    vertex 200.85131929572438 1291.1347508522877 209.99999999999997
  endloop
endfacet
facet normal -0.7660084843693977 0.5877789830773126 0.2602822870014373
  outer loop
    vertex 178.37706887119276 1148.545702128802 29.999999999999986
    vertex 212.9842821796563 1113.938488820329 209.99999999999997
    vertex 230.29719323976101 1136.5011137916076 209.99999999999997
  endloop
endfacet
facet normal -0.7782019634672348 -0.59713536866653 -0.19450207079419007
  outer loop
    vertex 79.38211950507784 1134.403566505074 10.0
    vertex 51.097848257612974 1106.1192952576057 209.99999999999997
    vertex 32.02761354586651 1130.9721089999948 209.99999999999997
  endloop
endfacet
facet normal 0.1280334170297967 -0.97251035397082 -0.19450207079418205
  outer loop
    vertex 135.95066199999997 1070.9721089999941 209.99999999999997
    vertex 135.95066200000142 1110.972108999998 10.0
    vertex 167.0089474123026 1075.061009845304 209.99999999999997
  endloop
endfacet
facet normal 0.3753749853041594 0.9062353804970789 -0.19450207079416168
  outer loop
    vertex 195.95066200000113 1294.8951574541302 209.99999999999997
    vertex 175.95066200000133 1260.2541413027525 10.0
    vertex 167.0089474123026 1306.8832081546839 209.99999999999997
  endloop
endfacet
facet normal 0.8920357733402635 0.3694933154395898 0.26028228700143574
  outer loop
    vertex 77.99511242265588 1175.4429662938437 29.999999999999986
    vertex 30.720779889108243 1162.7758470687445 209.99999999999997
    vertex 41.60413076023785 1136.501113791604 209.99999999999997
  endloop
endfacet
facet normal 0.37537498530423 0.9062353804970518 -0.19450207079415216
  outer loop
    vertex 167.0089474123026 1306.8832081546839 209.99999999999997
    vertex 175.95066200000133 1260.2541413027525 10.0
    vertex 156.65618560820306 1268.246175103123 10.0
  endloop
endfacet
facet normal 0.9062353804970619 0.37537498530420305 -0.19450207079415618
  outer loop
    vertex 205.23269430275647 1230.9721089999982 10.0
    vertex 251.86176115468925 1222.0303944122961 209.99999999999997
    vertex 213.22472810312664 1211.6776326081992 10.0
  endloop
endfacet
facet normal -0.892035773340299 -0.3694933154395263 0.2602822870014048
  outer loop
    vertex 230.29719323975993 1245.4431042083795 209.99999999999997
    vertex 187.91218622706617 1220.9721089999953 29.999999999999986
    vertex 193.90621157734407 1206.5012517061464 29.999999999999986
  endloop
endfacet
facet normal -0.9062353804970721 0.3753749853041745 -0.19450207079416326
  outer loop
    vertex 32.02761354586651 1250.972108999995 209.99999999999997
    vertex 58.676595896876194 1211.6776326081992 10.0
    vertex 20.039562845312137 1222.0303944122961 209.99999999999997
  endloop
endfacet
facet normal 0.5877789830773793 -0.7660084843693574 0.2602822870014054
  outer loop
    vertex 58.917041820340025 1268.0057291796472 209.99999999999997
    vertex 93.5242551288072 1233.3985158711878 29.999999999999986
    vertex 81.47966679161405 1285.3186402397514 209.99999999999997
  endloop
endfacet
facet normal 0.0 0.0 1.0
  outer loop
    vertex 77.99511242265588 1175.4429662938437 29.999999999999986
    vertex 77.99511242265588 1206.5012517061464 29.999999999999986
    vertex 75.95066199999991 1190.972108999995 29.999999999999986
  endloop
endfacet
facet normal 0.0 0.0 1.0
  outer loop
    vertex 77.99511242265588 1206.5012517061464 29.999999999999986
    vertex 77.99511242265588 1175.4429662938437 29.999999999999986
    vertex 83.98913777293377 1160.9721089999946 29.999999999999986
  endloop
endfacet
facet normal 0.0 0.0 1.0
  outer loop
    vertex 77.99511242265588 1206.5012517061464 29.999999999999986
    vertex 83.98913777293377 1160.9721089999946 29.999999999999986
    vertex 83.98913777293342 1220.9721089999946 29.999999999999986
  endloop
endfacet
facet normal 0.0 0.0 1.0
  outer loop
    vertex 83.98913777293342 1220.9721089999946 29.999999999999986
    vertex 83.98913777293377 1160.9721089999946 29.999999999999986
    vertex 93.5242551288072 1233.3985158711878 29.999999999999986
  endloop
endfacet
facet normal 0.0 0.0 1.0
  outer loop
    vertex 93.5242551288072 1233.3985158711878 29.999999999999986
    vertex 83.98913777293377 1160.9721089999946 29.999999999999986
    vertex 93.5242551288072 1148.545702128802 29.999999999999986
  endloop
endfacet
facet normal 0.0 0.0 1.0
  outer loop
    vertex 93.5242551288072 1233.3985158711878 29.999999999999986
    vertex 93.5242551288072 1148.545702128802 29.999999999999986
    vertex 105.95066199999994 1139.0105847729287 29.999999999999986
  endloop
endfacet
facet normal 0.0 0.0 1.0
  outer loop
    vertex 93.5242551288072 1233.3985158711878 29.999999999999986
    vertex 105.95066199999994 1139.0105847729287 29.999999999999986
    vertex 105.95066199999994 1242.9336332270611 29.999999999999986
  endloop
endfacet
facet normal 0.0 0.0 1.0
  outer loop
    vertex 105.95066199999994 1242.9336332270611 29.999999999999986
    vertex 105.95066199999994 1139.0105847729287 29.999999999999986
    vertex 120.42151929384865 1133.016559422651 29.999999999999986
  endloop
endfacet
facet normal 0.0 0.0 1.0
  outer loop
    vertex 105.95066199999994 1242.9336332270611 29.999999999999986
    vertex 120.42151929384865 1133.016559422651 29.999999999999986
    vertex 120.42151929384865 1248.9276585773391 29.999999999999986
  endloop
endfacet
facet normal 0.0 0.0 1.0
  outer loop
    vertex 120.42151929384865 1248.9276585773391 29.999999999999986
    vertex 120.42151929384865 1133.016559422651 29.999999999999986
    vertex 120.95066200000014 1190.972108999995 29.999999999999986
  endloop
endfacet
facet normal 0.0 0.0 1.0
  outer loop
    vertex 120.95066200000014 1190.972108999995 29.999999999999986
    vertex 120.42151929384865 1133.016559422651 29.999999999999986
    vertex 121.46177460566413 1187.0898233234575 29.999999999999986
  endloop
endfacet
facet normal 0.0 0.0 1.0
  outer loop
    vertex 121.46177460566413 1187.0898233234575 29.999999999999986
    vertex 120.42151929384865 1133.016559422651 29.999999999999986
    vertex 135.95066199999997 1130.9721089999948 29.999999999999986
  endloop
endfacet
facet normal 0.0 0.0 1.0
  outer loop
    vertex 121.46177460566413 1187.0898233234575 29.999999999999986
    vertex 135.95066199999997 1130.9721089999948 29.999999999999986
    vertex 122.96028094323343 1183.4721089999953 29.999999999999986
  endloop
endfacet
facet normal 0.0 0.0 1.0
  outer loop
    vertex 122.96028094323343 1183.4721089999953 29.999999999999986
    vertex 135.95066199999997 1130.9721089999948 29.999999999999986
    vertex 125.34406028220197 1180.3655072821969 29.999999999999986
  endloop
endfacet
facet normal 0.0 0.0 1.0
  outer loop
    vertex 125.34406028220197 1180.3655072821969 29.999999999999986
    vertex 135.95066199999997 1130.9721089999948 29.999999999999986
    vertex 128.45066200000022 1177.9817279432289 29.999999999999986
  endloop
endfacet
facet normal 0.0 0.0 1.0
  outer loop
    vertex 128.45066200000022 1177.9817279432289 29.999999999999986
    vertex 135.95066199999997 1130.9721089999948 29.999999999999986
    vertex 132.06837632346213 1176.4832216056589 29.999999999999986
  endloop
endfacet
facet normal 0.0 0.0 1.0
  outer loop
    vertex 132.06837632346213 1176.4832216056589 29.999999999999986
    vertex 135.95066199999997 1130.9721089999948 29.999999999999986
    vertex 135.95066199999997 1175.9721089999955 29.999999999999986
  endloop
endfacet
facet normal 0.0 0.0 1.0
  outer loop
    vertex 135.95066199999997 1175.9721089999955 29.999999999999986
    vertex 135.95066199999997 1130.9721089999948 29.999999999999986
    vertex 151.4798047061513 1133.016559422651 29.999999999999986
  endloop
endfacet
facet normal 0.0 0.0 1.0
  outer loop
    vertex 135.95066199999997 1175.9721089999955 29.999999999999986
    vertex 151.4798047061513 1133.016559422651 29.999999999999986
    vertex 139.8329476765378 1176.4832216056589 29.999999999999986
  endloop
endfacet
facet normal 0.0 0.0 1.0
  outer loop
    vertex 139.8329476765378 1176.4832216056589 29.999999999999986
    vertex 151.4798047061513 1133.016559422651 29.999999999999986
    vertex 143.45066200000008 1177.9817279432289 29.999999999999986
  endloop
endfacet
facet normal 0.0 0.0 1.0
  outer loop
    vertex 143.45066200000008 1177.9817279432289 29.999999999999986
    vertex 151.4798047061513 1133.016559422651 29.999999999999986
    vertex 146.55726371779798 1180.3655072821969 29.999999999999986
  endloop
endfacet
facet normal 0.0 0.0 1.0
  outer loop
    vertex 146.55726371779798 1180.3655072821969 29.999999999999986
    vertex 151.4798047061513 1133.016559422651 29.999999999999986
    vertex 148.94104305676652 1183.4721089999953 29.999999999999986
  endloop
endfacet
facet normal 0.0 0.0 1.0
  outer loop
    vertex 148.94104305676652 1183.4721089999953 29.999999999999986
    vertex 151.4798047061513 1133.016559422651 29.999999999999986
    vertex 150.4395493943358 1187.0898233234575 29.999999999999986
  endloop
endfacet
facet normal 0.0 0.0 1.0
  outer loop
    vertex 150.4395493943358 1187.0898233234575 29.999999999999986
    vertex 151.4798047061513 1133.016559422651 29.999999999999986
    vertex 150.95066199999982 1190.972108999995 29.999999999999986
  endloop
endfacet
facet normal 0.0 0.0 1.0
  outer loop
    vertex 120.42151929384865 1248.9276585773391 29.999999999999986
    vertex 121.46177460566413 1194.8543946765324 29.999999999999986
    vertex 135.95066199999997 1250.972108999995 29.999999999999986
  endloop
endfacet
facet normal 0.0 0.0 1.0
  outer loop
    vertex 121.46177460566413 1194.8543946765324 29.999999999999986
    vertex 120.42151929384865 1248.9276585773391 29.999999999999986
    vertex 120.95066200000014 1190.972108999995 29.999999999999986
  endloop
endfacet
facet normal 0.0 0.0 1.0
  outer loop
    vertex 135.95066199999997 1250.972108999995 29.999999999999986
    vertex 121.46177460566413 1194.8543946765324 29.999999999999986
    vertex 122.96028094323343 1198.4721089999948 29.999999999999986
  endloop
endfacet
facet normal 0.0 0.0 1.0
  outer loop
    vertex 135.95066199999997 1250.972108999995 29.999999999999986
    vertex 122.96028094323343 1198.4721089999948 29.999999999999986
    vertex 125.34406028220197 1201.578710717793 29.999999999999986
  endloop
endfacet
facet normal 0.0 0.0 1.0
  outer loop
    vertex 135.95066199999997 1250.972108999995 29.999999999999986
    vertex 125.34406028220197 1201.578710717793 29.999999999999986
    vertex 128.45066199999988 1203.9624900567612 29.999999999999986
  endloop
endfacet
facet normal 0.0 0.0 1.0
  outer loop
    vertex 135.95066199999997 1250.972108999995 29.999999999999986
    vertex 128.45066199999988 1203.9624900567612 29.999999999999986
    vertex 132.06837632346213 1205.4609963943312 29.999999999999986
  endloop
endfacet
facet normal 0.0 0.0 1.0
  outer loop
    vertex 135.95066199999997 1250.972108999995 29.999999999999986
    vertex 132.06837632346213 1205.4609963943312 29.999999999999986
    vertex 135.95066199999997 1205.9721089999944 29.999999999999986
  endloop
endfacet
facet normal 0.0 0.0 1.0
  outer loop
    vertex 135.95066199999997 1250.972108999995 29.999999999999986
    vertex 135.95066199999997 1205.9721089999944 29.999999999999986
    vertex 139.8329476765378 1205.4609963943312 29.999999999999986
  endloop
endfacet
facet normal 0.0 0.0 1.0
  outer loop
    vertex 135.95066199999997 1250.972108999995 29.999999999999986
    vertex 139.8329476765378 1205.4609963943312 29.999999999999986
    vertex 151.4798047061513 1248.9276585773391 29.999999999999986
  endloop
endfacet
facet normal 0.0 0.0 1.0
  outer loop
    vertex 151.4798047061513 1248.9276585773391 29.999999999999986
    vertex 139.8329476765378 1205.4609963943312 29.999999999999986
    vertex 143.4506619999997 1203.9624900567612 29.999999999999986
  endloop
endfacet
facet normal 0.0 0.0 1.0
  outer loop
    vertex 151.4798047061513 1248.9276585773391 29.999999999999986
    vertex 143.4506619999997 1203.9624900567612 29.999999999999986
    vertex 146.55726371779798 1201.578710717793 29.999999999999986
  endloop
endfacet
facet normal 0.0 0.0 1.0
  outer loop
    vertex 151.4798047061513 1248.9276585773391 29.999999999999986
    vertex 146.55726371779798 1201.578710717793 29.999999999999986
    vertex 148.94104305676652 1198.4721089999948 29.999999999999986
  endloop
endfacet
facet normal 0.0 0.0 1.0
  outer loop
    vertex 151.4798047061513 1248.9276585773391 29.999999999999986
    vertex 148.94104305676652 1198.4721089999948 29.999999999999986
    vertex 150.4395493943358 1194.8543946765324 29.999999999999986
  endloop
endfacet
facet normal 0.0 0.0 1.0
  outer loop
    vertex 151.4798047061513 1248.9276585773391 29.999999999999986
    vertex 150.4395493943358 1194.8543946765324 29.999999999999986
    vertex 150.95066199999982 1190.972108999995 29.999999999999986
  endloop
endfacet
facet normal 0.0 0.0 1.0
  outer loop
    vertex 151.4798047061513 1248.9276585773391 29.999999999999986
    vertex 150.95066199999982 1190.972108999995 29.999999999999986
    vertex 151.4798047061513 1133.016559422651 29.999999999999986
  endloop
endfacet
facet normal 0.0 0.0 1.0
  outer loop
    vertex 151.4798047061513 1248.9276585773391 29.999999999999986
    vertex 151.4798047061513 1133.016559422651 29.999999999999986
    vertex 165.950662 1139.0105847729287 29.999999999999986
  endloop
endfacet
facet normal 0.0 0.0 1.0
  outer loop
    vertex 151.4798047061513 1248.9276585773391 29.999999999999986
    vertex 165.950662 1139.0105847729287 29.999999999999986
    vertex 165.950662 1242.9336332270611 29.999999999999986
  endloop
endfacet
facet normal 0.0 0.0 1.0
  outer loop
    vertex 165.950662 1242.9336332270611 29.999999999999986
    vertex 165.950662 1139.0105847729287 29.999999999999986
    vertex 178.37706887119276 1148.545702128802 29.999999999999986
  endloop
endfacet
facet normal 0.0 0.0 1.0
  outer loop
    vertex 165.950662 1242.9336332270611 29.999999999999986
    vertex 178.37706887119276 1148.545702128802 29.999999999999986
    vertex 178.37706887119276 1233.3985158711878 29.999999999999986
  endloop
endfacet
facet normal 0.0 0.0 1.0
  outer loop
    vertex 178.37706887119276 1233.3985158711878 29.999999999999986
    vertex 178.37706887119276 1148.545702128802 29.999999999999986
    vertex 187.9121862270665 1160.9721089999953 29.999999999999986
  endloop
endfacet
facet normal 0.0 0.0 1.0
  outer loop
    vertex 178.37706887119276 1233.3985158711878 29.999999999999986
    vertex 187.9121862270665 1160.9721089999953 29.999999999999986
    vertex 187.91218622706617 1220.9721089999953 29.999999999999986
  endloop
endfacet
facet normal 0.0 0.0 1.0
  outer loop
    vertex 187.91218622706617 1220.9721089999953 29.999999999999986
    vertex 187.9121862270665 1160.9721089999953 29.999999999999986
    vertex 193.90621157734407 1206.5012517061464 29.999999999999986
  endloop
endfacet
facet normal 0.0 0.0 1.0
  outer loop
    vertex 193.90621157734407 1206.5012517061464 29.999999999999986
    vertex 187.9121862270665 1160.9721089999953 29.999999999999986
    vertex 193.90621157734407 1175.4429662938437 29.999999999999986
  endloop
endfacet
facet normal 0.0 0.0 1.0
  outer loop
    vertex 193.90621157734407 1206.5012517061464 29.999999999999986
    vertex 193.90621157734407 1175.4429662938437 29.999999999999986
    vertex 195.95066200000005 1190.972108999995 29.999999999999986
  endloop
endfacet
facet normal -0.9062353804970533 -0.37537498530421376 -0.19450207079417514
  outer loop
    vertex 58.676595896876194 1170.2665853917958 10.0
    vertex 66.66862969724637 1150.9721089999975 10.0
    vertex 20.039562845312137 1159.9138235876917 209.99999999999997
  endloop
endfacet
facet normal -0.5971353686664312 -0.7782019634673105 -0.19450207079418974
  outer loop
    vertex 51.097848257612974 1106.1192952576057 209.99999999999997
    vertex 79.38211950507784 1134.403566505074 10.0
    vertex 75.95066200000062 1087.0490605458654 209.99999999999997
  endloop
endfacet
facet normal -0.7782019634671982 0.5971353686665851 -0.19450207079416687
  outer loop
    vertex 51.097848257612974 1275.8249227423812 209.99999999999997
    vertex 79.38211950507784 1247.5406514949218 10.0
    vertex 66.66862969724637 1230.9721089999973 10.0
  endloop
endfacet
facet normal -0.9914448613738085 0.1305261922200673 0.0
  outer loop
    vertex 121.46177460566413 1194.8543946765324 269.99999999999994
    vertex 120.95066200000014 1190.972108999995 29.999999999999986
    vertex 120.95066200000014 1190.972108999995 269.99999999999994
  endloop
endfacet
facet normal -0.9914448613738085 0.1305261922200673 0.0
  outer loop
    vertex 120.95066200000014 1190.972108999995 29.999999999999986
    vertex 121.46177460566413 1194.8543946765324 269.99999999999994
    vertex 121.46177460566413 1194.8543946765324 29.999999999999986
  endloop
endfacet
facet normal -0.9062353804970548 0.3753749853042139 -0.19450207079416856
  outer loop
    vertex 32.02761354586651 1250.972108999995 209.99999999999997
    vertex 66.66862969724637 1230.9721089999973 10.0
    vertex 58.676595896876194 1211.6776326081992 10.0
  endloop
endfacet
facet normal 0.12803341702986415 -0.9725103539708093 -0.19450207079419063
  outer loop
    vertex 167.0089474123026 1075.061009845304 209.99999999999997
    vertex 135.95066200000142 1110.972108999998 10.0
    vertex 156.65618560820306 1113.6980428968727 10.0
  endloop
endfacet
facet normal -0.12602728897098775 -0.957272298516951 0.2602822870014338
  outer loop
    vertex 164.14692393123138 1296.201991110892 209.99999999999997
    vertex 135.95066199999997 1250.972108999995 29.999999999999986
    vertex 151.4798047061513 1248.9276585773391 29.999999999999986
  endloop
endfacet
facet normal 0.9062353804970537 -0.3753749853042135 -0.1945020707941744
  outer loop
    vertex 213.22472810312664 1170.2665853917965 10.0
    vertex 239.87371045413525 1130.9721089999948 209.99999999999997
    vertex 205.23269430275647 1150.9721089999982 10.0
  endloop
endfacet
facet normal -0.7782019634672047 0.597135368666577 -0.19450207079416543
  outer loop
    vertex 51.097848257612974 1275.8249227423812 209.99999999999997
    vertex 66.66862969724637 1230.9721089999973 10.0
    vertex 32.02761354586651 1250.972108999995 209.99999999999997
  endloop
endfacet
facet normal 0.3694933154395681 -0.892035773340285 0.2602822870013931
  outer loop
    vertex 81.47966679161405 1285.3186402397514 209.99999999999997
    vertex 105.95066199999994 1242.9336332270611 29.999999999999986
    vertex 107.75440006876097 1296.2019911108828 209.99999999999997
  endloop
endfacet
facet normal 0.9725103539708141 -0.12803341702986695 -0.19450207079416434
  outer loop
    vertex 215.95066200000127 1190.9721089999978 10.0
    vertex 251.86176115468925 1159.913823587693 209.99999999999997
    vertex 213.22472810312664 1170.2665853917965 10.0
  endloop
endfacet
facet normal -0.7782019634671836 -0.5971353686666002 -0.19450207079417914
  outer loop
    vertex 66.66862969724637 1150.9721089999975 10.0
    vertex 79.38211950507784 1134.403566505074 10.0
    vertex 32.02761354586651 1130.9721089999948 209.99999999999997
  endloop
endfacet
facet normal -0.12602728897021506 -0.9572722985170771 0.2602822870013447
  outer loop
    vertex 135.95066199999673 1299.9140994167444 209.99999999999997
    vertex 135.95066199999997 1250.972108999995 29.999999999999986
    vertex 164.14692393123138 1296.201991110892 209.99999999999997
  endloop
endfacet
facet normal -0.8920357733402997 0.36949331543952046 0.26028228700141093
  outer loop
    vertex 193.90621157734407 1175.4429662938437 29.999999999999986
    vertex 187.9121862270665 1160.9721089999953 29.999999999999986
    vertex 241.18054411089025 1162.7758470687552 209.99999999999997
  endloop
endfacet
facet normal 0.9725103539708246 -0.12803341702980037 -0.1945020707941559
  outer loop
    vertex 215.95066200000127 1190.9721089999978 10.0
    vertex 255.95066199999903 1190.972108999995 209.99999999999997
    vertex 251.86176115468925 1159.913823587693 209.99999999999997
  endloop
endfacet
facet normal 0.3694933154398695 0.8920357733401266 0.26028228700150835
  outer loop
    vertex 107.75440006876097 1085.7422268890805 209.99999999999997
    vertex 120.42151929384865 1133.016559422651 29.999999999999986
    vertex 81.47966679161225 1096.6255777602235 209.99999999999997
  endloop
endfacet
facet normal -0.12803341702986387 -0.972510353970811 -0.1945020707941821
  outer loop
    vertex 135.95066199999997 1070.9721089999941 209.99999999999997
    vertex 115.24513839179977 1113.6980428968727 10.0
    vertex 135.95066200000142 1110.972108999998 10.0
  endloop
endfacet
facet normal -0.7933533402912204 -0.6087614290087399 -0.0
  outer loop
    vertex 122.96028094323343 1183.4721089999953 269.99999999999994
    vertex 125.34406028220197 1180.3655072821969 29.999999999999986
    vertex 125.34406028220197 1180.3655072821969 269.99999999999994
  endloop
endfacet
facet normal -0.7933533402912204 -0.6087614290087399 -0.0
  outer loop
    vertex 125.34406028220197 1180.3655072821969 29.999999999999986
    vertex 122.96028094323343 1183.4721089999953 269.99999999999994
    vertex 122.96028094323343 1183.4721089999953 29.999999999999986
  endloop
endfacet
facet normal 0.7782019634671862 0.5971353686666022 -0.19450207079416268
  outer loop
    vertex 239.87371045413525 1250.9721089999964 209.99999999999997
    vertex 205.23269430275647 1230.9721089999982 10.0
    vertex 192.519204494925 1247.5406514949218 10.0
  endloop
endfacet
facet normal 0.37537498530437013 -0.9062353804969869 -0.1945020707941829
  outer loop
    vertex 167.0089474123026 1075.061009845304 209.99999999999997
    vertex 156.65618560820306 1113.6980428968727 10.0
    vertex 195.95066200000113 1087.0490605458654 209.99999999999997
  endloop
endfacet
facet normal 0.5971353686665778 -0.7782019634671995 -0.19450207079418394
  outer loop
    vertex 220.80347574238624 1106.1192952576057 209.99999999999997
    vertex 175.95066200000133 1121.690076697243 10.0
    vertex 192.519204494925 1134.403566505074 10.0
  endloop
endfacet
facet normal -0.7933533402912204 0.6087614290087399 0.0
  outer loop
    vertex 125.34406028220197 1201.578710717793 269.99999999999994
    vertex 122.96028094323343 1198.4721089999948 29.999999999999986
    vertex 122.96028094323343 1198.4721089999948 269.99999999999994
  endloop
endfacet
facet normal -0.7933533402912204 0.6087614290087399 0.0
  outer loop
    vertex 122.96028094323343 1198.4721089999948 29.999999999999986
    vertex 125.34406028220197 1201.578710717793 269.99999999999994
    vertex 125.34406028220197 1201.578710717793 29.999999999999986
  endloop
endfacet
facet normal -0.9238795325113033 -0.3826834323650502 -0.0
  outer loop
    vertex 121.46177460566413 1187.0898233234575 269.99999999999994
    vertex 122.96028094323343 1183.4721089999953 29.999999999999986
    vertex 122.96028094323343 1183.4721089999953 269.99999999999994
  endloop
endfacet
facet normal -0.9238795325113033 -0.3826834323650502 -0.0
  outer loop
    vertex 122.96028094323343 1183.4721089999953 29.999999999999986
    vertex 121.46177460566413 1187.0898233234575 269.99999999999994
    vertex 121.46177460566413 1187.0898233234575 29.999999999999986
  endloop
endfacet
facet normal 0.5971353686664942 -0.7782019634672666 -0.19450207079417187
  outer loop
    vertex 220.80347574238624 1106.1192952576057 209.99999999999997
    vertex 195.95066200000113 1087.0490605458654 209.99999999999997
    vertex 175.95066200000133 1121.690076697243 10.0
  endloop
endfacet
facet normal 0.5971353686664942 -0.7782019634672666 -0.19450207079417187
  outer loop
    vertex 195.95066200000113 1087.0490605458654 209.99999999999997
    vertex 220.80347574238624 1106.1192952576057 209.99999999999997
    vertex 200.8513192956648 1090.8094671476597 209.99999999999997
  endloop
endfacet
facet normal -0.12803341702979518 -0.9725103539708183 -0.19450207079419077
  outer loop
    vertex 104.89237658769697 1075.061009845304 209.99999999999997
    vertex 115.24513839179977 1113.6980428968727 10.0
    vertex 135.95066199999997 1070.9721089999941 209.99999999999997
  endloop
endfacet
facet normal -0.95727229851695 -0.126027288971046 0.26028228700140926
  outer loop
    vertex 241.18054411089025 1219.1683709312304 209.99999999999997
    vertex 195.95066200000005 1190.972108999995 29.999999999999986
    vertex 244.89265241676821 1190.9721089999907 209.99999999999997
  endloop
endfacet
facet normal 0.5877789830774381 -0.7660084843693149 0.2602822870013971
  outer loop
    vertex 81.47966679161405 1285.3186402397514 209.99999999999997
    vertex 93.5242551288072 1233.3985158711878 29.999999999999986
    vertex 105.95066199999994 1242.9336332270611 29.999999999999986
  endloop
endfacet
facet normal -0.8920357733403063 -0.36949331543951003 0.26028228700140305
  outer loop
    vertex 230.29719323975993 1245.4431042083795 209.99999999999997
    vertex 193.90621157734407 1206.5012517061464 29.999999999999986
    vertex 241.18054411089025 1219.1683709312304 209.99999999999997
  endloop
endfacet
facet normal -0.9572722985169593 -0.1260272889709883 0.26028228700140266
  outer loop
    vertex 241.18054411089025 1219.1683709312304 209.99999999999997
    vertex 193.90621157734407 1206.5012517061464 29.999999999999986
    vertex 195.95066200000005 1190.972108999995 29.999999999999986
  endloop
endfacet
facet normal 0.3694933154395329 -0.8920357733402983 0.26028228700139744
  outer loop
    vertex 107.75440006876097 1296.2019911108828 209.99999999999997
    vertex 105.95066199999994 1242.9336332270611 29.999999999999986
    vertex 120.42151929384865 1248.9276585773391 29.999999999999986
  endloop
endfacet
facet normal 0.9062353804970718 -0.3753749853041725 -0.1945020707941687
  outer loop
    vertex 213.22472810312664 1170.2665853917965 10.0
    vertex 251.86176115468925 1159.913823587693 209.99999999999997
    vertex 239.87371045413525 1130.9721089999948 209.99999999999997
  endloop
endfacet
facet normal 0.0 0.0 -1.0
  outer loop
    vertex 58.676595896876194 1211.6776326081992 10.0
    vertex 58.676595896876194 1170.2665853917958 10.0
    vertex 55.950662000001564 1190.9721089999978 10.0
  endloop
endfacet
facet normal 0.0 0.0 -1.0
  outer loop
    vertex 58.676595896876194 1170.2665853917958 10.0
    vertex 58.676595896876194 1211.6776326081992 10.0
    vertex 66.66862969724637 1230.9721089999973 10.0
  endloop
endfacet
facet normal 0.0 0.0 -1.0
  outer loop
    vertex 58.676595896876194 1170.2665853917958 10.0
    vertex 66.66862969724637 1230.9721089999973 10.0
    vertex 66.66862969724637 1150.9721089999975 10.0
  endloop
endfacet
facet normal 0.0 0.0 -1.0
  outer loop
    vertex 66.66862969724637 1150.9721089999975 10.0
    vertex 66.66862969724637 1230.9721089999973 10.0
    vertex 79.38211950507784 1247.5406514949218 10.0
  endloop
endfacet
facet normal 0.0 0.0 -1.0
  outer loop
    vertex 66.66862969724637 1150.9721089999975 10.0
    vertex 79.38211950507784 1247.5406514949218 10.0
    vertex 79.38211950507784 1134.403566505074 10.0
  endloop
endfacet
facet normal 0.0 0.0 -1.0
  outer loop
    vertex 79.38211950507784 1134.403566505074 10.0
    vertex 79.38211950507784 1247.5406514949218 10.0
    vertex 95.95066200000149 1260.2541413027525 10.0
  endloop
endfacet
facet normal 0.0 0.0 -1.0
  outer loop
    vertex 79.38211950507784 1134.403566505074 10.0
    vertex 95.95066200000149 1260.2541413027525 10.0
    vertex 95.95066200000149 1121.690076697243 10.0
  endloop
endfacet
facet normal 0.0 0.0 -1.0
  outer loop
    vertex 95.95066200000149 1121.690076697243 10.0
    vertex 95.95066200000149 1260.2541413027525 10.0
    vertex 115.24513839179977 1268.246175103123 10.0
  endloop
endfacet
facet normal 0.0 0.0 -1.0
  outer loop
    vertex 95.95066200000149 1121.690076697243 10.0
    vertex 115.24513839179977 1268.246175103123 10.0
    vertex 115.24513839179977 1113.6980428968727 10.0
  endloop
endfacet
facet normal 0.0 0.0 -1.0
  outer loop
    vertex 115.24513839179977 1113.6980428968727 10.0
    vertex 115.24513839179977 1268.246175103123 10.0
    vertex 135.95066200000142 1270.9721089999978 10.0
  endloop
endfacet
facet normal 0.0 0.0 -1.0
  outer loop
    vertex 115.24513839179977 1113.6980428968727 10.0
    vertex 135.95066200000142 1270.9721089999978 10.0
    vertex 135.95066200000142 1110.972108999998 10.0
  endloop
endfacet
facet normal 0.0 0.0 -1.0
  outer loop
    vertex 135.95066200000142 1110.972108999998 10.0
    vertex 135.95066200000142 1270.9721089999978 10.0
    vertex 156.65618560820306 1268.246175103123 10.0
  endloop
endfacet
facet normal 0.0 0.0 -1.0
  outer loop
    vertex 135.95066200000142 1110.972108999998 10.0
    vertex 156.65618560820306 1268.246175103123 10.0
    vertex 156.65618560820306 1113.6980428968727 10.0
  endloop
endfacet
facet normal 0.0 0.0 -1.0
  outer loop
    vertex 156.65618560820306 1113.6980428968727 10.0
    vertex 156.65618560820306 1268.246175103123 10.0
    vertex 175.95066200000133 1260.2541413027525 10.0
  endloop
endfacet
facet normal 0.0 0.0 -1.0
  outer loop
    vertex 156.65618560820306 1113.6980428968727 10.0
    vertex 175.95066200000133 1260.2541413027525 10.0
    vertex 175.95066200000133 1121.690076697243 10.0
  endloop
endfacet
facet normal 0.0 0.0 -1.0
  outer loop
    vertex 175.95066200000133 1121.690076697243 10.0
    vertex 175.95066200000133 1260.2541413027525 10.0
    vertex 192.519204494925 1247.5406514949218 10.0
  endloop
endfacet
facet normal 0.0 0.0 -1.0
  outer loop
    vertex 175.95066200000133 1121.690076697243 10.0
    vertex 192.519204494925 1247.5406514949218 10.0
    vertex 192.519204494925 1134.403566505074 10.0
  endloop
endfacet
facet normal 0.0 0.0 -1.0
  outer loop
    vertex 192.519204494925 1134.403566505074 10.0
    vertex 192.519204494925 1247.5406514949218 10.0
    vertex 205.23269430275647 1230.9721089999982 10.0
  endloop
endfacet
facet normal 0.0 0.0 -1.0
  outer loop
    vertex 192.519204494925 1134.403566505074 10.0
    vertex 205.23269430275647 1230.9721089999982 10.0
    vertex 205.23269430275647 1150.9721089999982 10.0
  endloop
endfacet
facet normal 0.0 0.0 -1.0
  outer loop
    vertex 205.23269430275647 1150.9721089999982 10.0
    vertex 205.23269430275647 1230.9721089999982 10.0
    vertex 213.22472810312664 1211.6776326081992 10.0
  endloop
endfacet
facet normal 0.0 0.0 -1.0
  outer loop
    vertex 205.23269430275647 1150.9721089999982 10.0
    vertex 213.22472810312664 1211.6776326081992 10.0
    vertex 213.22472810312664 1170.2665853917965 10.0
  endloop
endfacet
facet normal 0.0 0.0 -1.0
  outer loop
    vertex 213.22472810312664 1170.2665853917965 10.0
    vertex 213.22472810312664 1211.6776326081992 10.0
    vertex 215.95066200000127 1190.9721089999978 10.0
  endloop
endfacet
facet normal -0.9572722985169556 0.12602728897098786 0.2602822870014168
  outer loop
    vertex 195.95066200000005 1190.972108999995 29.999999999999986
    vertex 193.90621157734407 1175.4429662938437 29.999999999999986
    vertex 244.89265241676821 1190.9721089999907 209.99999999999997
  endloop
endfacet
facet normal 0.5877789830774234 0.7660084843692964 0.26028228700148526
  outer loop
    vertex 58.91704182034183 1113.9384888203217 209.99999999999997
    vertex 105.95066199999994 1139.0105847729287 29.999999999999986
    vertex 93.5242551288072 1148.545702128802 29.999999999999986
  endloop
endfacet
facet normal 0.8920357733403003 -0.36949331543952 0.2602822870014094
  outer loop
    vertex 83.98913777293342 1220.9721089999946 29.999999999999986
    vertex 30.720779889104634 1219.1683709312217 209.99999999999997
    vertex 77.99511242265588 1206.5012517061464 29.999999999999986
  endloop
endfacet
facet normal -0.9914448613738085 -0.1305261922200673 -0.0
  outer loop
    vertex 120.95066200000014 1190.972108999995 269.99999999999994
    vertex 121.46177460566413 1187.0898233234575 29.999999999999986
    vertex 121.46177460566413 1187.0898233234575 269.99999999999994
  endloop
endfacet
facet normal -0.9914448613738085 -0.1305261922200673 -0.0
  outer loop
    vertex 121.46177460566413 1187.0898233234575 29.999999999999986
    vertex 120.95066200000014 1190.972108999995 269.99999999999994
    vertex 120.95066200000014 1190.972108999995 29.999999999999986
  endloop
endfacet
facet normal 0.3694933154395249 0.8920357733402818 0.26028228700146516
  outer loop
    vertex 81.47966679161225 1096.6255777602235 209.99999999999997
    vertex 120.42151929384865 1133.016559422651 29.999999999999986
    vertex 105.95066199999994 1139.0105847729287 29.999999999999986
  endloop
endfacet
facet normal -0.7660084843693078 0.5877789830774376 0.2602822870014197
  outer loop
    vertex 187.9121862270665 1160.9721089999953 29.999999999999986
    vertex 178.37706887119276 1148.545702128802 29.999999999999986
    vertex 230.29719323976101 1136.5011137916076 209.99999999999997
  endloop
endfacet
facet normal 0.0 0.0 1.0
  outer loop
    vertex 20.039562845312137 1159.9138235876917 209.99999999999997
    vertex 20.039562845312137 1222.0303944122961 209.99999999999997
    vertex 15.950661999998026 1190.972108999995 209.99999999999997
  endloop
endfacet
facet normal 0.0 0.0 1.0
  outer loop
    vertex 20.039562845312137 1222.0303944122961 209.99999999999997
    vertex 20.039562845312137 1159.9138235876917 209.99999999999997
    vertex 32.02761354586651 1130.9721089999948 209.99999999999997
  endloop
endfacet
facet normal 0.0 0.0 1.0
  outer loop
    vertex 20.039562845312137 1222.0303944122961 209.99999999999997
    vertex 32.02761354586651 1130.9721089999948 209.99999999999997
    vertex 27.008671583230292 1190.972108999982 209.99999999999997
  endloop
endfacet
facet normal 0.0 0.0 1.0
  outer loop
    vertex 27.008671583230292 1190.972108999982 209.99999999999997
    vertex 32.02761354586651 1130.9721089999948 209.99999999999997
    vertex 30.720779889108243 1162.7758470687445 209.99999999999997
  endloop
endfacet
facet normal 0.0 0.0 1.0
  outer loop
    vertex 30.720779889108243 1162.7758470687445 209.99999999999997
    vertex 32.02761354586651 1130.9721089999948 209.99999999999997
    vertex 41.60413076023785 1136.501113791604 209.99999999999997
  endloop
endfacet
facet normal 0.0 0.0 1.0
  outer loop
    vertex 41.60413076023785 1136.501113791604 209.99999999999997
    vertex 32.02761354586651 1130.9721089999948 209.99999999999997
    vertex 51.097848257612974 1106.1192952576057 209.99999999999997
  endloop
endfacet
facet normal 0.0 0.0 1.0
  outer loop
    vertex 41.60413076023785 1136.501113791604 209.99999999999997
    vertex 51.097848257612974 1106.1192952576057 209.99999999999997
    vertex 58.91704182034183 1113.9384888203217 209.99999999999997
  endloop
endfacet
facet normal 0.0 0.0 1.0
  outer loop
    vertex 58.91704182034183 1113.9384888203217 209.99999999999997
    vertex 51.097848257612974 1106.1192952576057 209.99999999999997
    vertex 75.95066200000062 1087.0490605458654 209.99999999999997
  endloop
endfacet
facet normal 0.0 0.0 1.0
  outer loop
    vertex 58.91704182034183 1113.9384888203217 209.99999999999997
    vertex 75.95066200000062 1087.0490605458654 209.99999999999997
    vertex 81.47966679161225 1096.6255777602235 209.99999999999997
  endloop
endfacet
facet normal 0.0 0.0 1.0
  outer loop
    vertex 81.47966679161225 1096.6255777602235 209.99999999999997
    vertex 75.95066200000062 1087.0490605458654 209.99999999999997
    vertex 104.89237658769697 1075.061009845304 209.99999999999997
  endloop
endfacet
facet normal 0.0 0.0 1.0
  outer loop
    vertex 81.47966679161225 1096.6255777602235 209.99999999999997
    vertex 104.89237658769697 1075.061009845304 209.99999999999997
    vertex 107.75440006876097 1085.7422268890805 209.99999999999997
  endloop
endfacet
facet normal 0.0 0.0 1.0
  outer loop
    vertex 107.75440006876097 1085.7422268890805 209.99999999999997
    vertex 104.89237658769697 1075.061009845304 209.99999999999997
    vertex 135.95066199999997 1070.9721089999941 209.99999999999997
  endloop
endfacet
facet normal 0.0 0.0 1.0
  outer loop
    vertex 107.75440006876097 1085.7422268890805 209.99999999999997
    vertex 135.95066199999997 1070.9721089999941 209.99999999999997
    vertex 135.95066199999673 1082.0301185832172 209.99999999999997
  endloop
endfacet
facet normal 0.0 0.0 1.0
  outer loop
    vertex 135.95066199999673 1082.0301185832172 209.99999999999997
    vertex 135.95066199999997 1070.9721089999941 209.99999999999997
    vertex 164.14692393123138 1085.7422268890934 209.99999999999997
  endloop
endfacet
facet normal 0.0 0.0 1.0
  outer loop
    vertex 164.14692393123138 1085.7422268890934 209.99999999999997
    vertex 135.95066199999997 1070.9721089999941 209.99999999999997
    vertex 167.0089474123026 1075.061009845304 209.99999999999997
  endloop
endfacet
facet normal 0.0 0.0 1.0
  outer loop
    vertex 164.14692393123138 1085.7422268890934 209.99999999999997
    vertex 167.0089474123026 1075.061009845304 209.99999999999997
    vertex 190.42165720838193 1096.625577760227 209.99999999999997
  endloop
endfacet
facet normal 0.0 0.0 1.0
  outer loop
    vertex 190.42165720838193 1096.625577760227 209.99999999999997
    vertex 167.0089474123026 1075.061009845304 209.99999999999997
    vertex 195.95066200000113 1087.0490605458654 209.99999999999997
  endloop
endfacet
facet normal 0.0 0.0 1.0
  outer loop
    vertex 190.42165720838193 1096.625577760227 209.99999999999997
    vertex 195.95066200000113 1087.0490605458654 209.99999999999997
    vertex 212.9842821796563 1113.938488820329 209.99999999999997
  endloop
endfacet
facet normal 0.0 0.0 1.0
  outer loop
    vertex 212.9842821796563 1113.938488820329 209.99999999999997
    vertex 195.95066200000113 1087.0490605458654 209.99999999999997
    vertex 200.8513192956648 1090.8094671476597 209.99999999999997
  endloop
endfacet
facet normal 0.0 0.0 1.0
  outer loop
    vertex 212.9842821796563 1113.938488820329 209.99999999999997
    vertex 200.8513192956648 1090.8094671476597 209.99999999999997
    vertex 220.80347574238624 1106.1192952576057 209.99999999999997
  endloop
endfacet
facet normal 0.0 0.0 1.0
  outer loop
    vertex 212.9842821796563 1113.938488820329 209.99999999999997
    vertex 220.80347574238624 1106.1192952576057 209.99999999999997
    vertex 230.29719323976101 1136.5011137916076 209.99999999999997
  endloop
endfacet
facet normal 0.0 0.0 1.0
  outer loop
    vertex 230.29719323976101 1136.5011137916076 209.99999999999997
    vertex 220.80347574238624 1106.1192952576057 209.99999999999997
    vertex 239.87371045413525 1130.9721089999948 209.99999999999997
  endloop
endfacet
facet normal 0.0 0.0 1.0
  outer loop
    vertex 230.29719323976101 1136.5011137916076 209.99999999999997
    vertex 239.87371045413525 1130.9721089999948 209.99999999999997
    vertex 241.18054411089025 1162.7758470687552 209.99999999999997
  endloop
endfacet
facet normal 0.0 0.0 1.0
  outer loop
    vertex 241.18054411089025 1162.7758470687552 209.99999999999997
    vertex 239.87371045413525 1130.9721089999948 209.99999999999997
    vertex 251.86176115468925 1159.913823587693 209.99999999999997
  endloop
endfacet
facet normal 0.0 0.0 1.0
  outer loop
    vertex 241.18054411089025 1162.7758470687552 209.99999999999997
    vertex 251.86176115468925 1159.913823587693 209.99999999999997
    vertex 244.89265241676821 1190.9721089999907 209.99999999999997
  endloop
endfacet
facet normal 0.0 0.0 1.0
  outer loop
    vertex 27.008671583230292 1190.972108999982 209.99999999999997
    vertex 32.02761354586651 1250.972108999995 209.99999999999997
    vertex 20.039562845312137 1222.0303944122961 209.99999999999997
  endloop
endfacet
facet normal 0.0 0.0 1.0
  outer loop
    vertex 32.02761354586651 1250.972108999995 209.99999999999997
    vertex 27.008671583230292 1190.972108999982 209.99999999999997
    vertex 30.720779889104634 1219.1683709312217 209.99999999999997
  endloop
endfacet
facet normal 0.0 0.0 1.0
  outer loop
    vertex 32.02761354586651 1250.972108999995 209.99999999999997
    vertex 30.720779889104634 1219.1683709312217 209.99999999999997
    vertex 41.60413076023352 1245.4431042083709 209.99999999999997
  endloop
endfacet
facet normal 0.0 0.0 1.0
  outer loop
    vertex 32.02761354586651 1250.972108999995 209.99999999999997
    vertex 41.60413076023352 1245.4431042083709 209.99999999999997
    vertex 51.097848257612974 1275.8249227423812 209.99999999999997
  endloop
endfacet
facet normal 0.0 0.0 1.0
  outer loop
    vertex 51.097848257612974 1275.8249227423812 209.99999999999997
    vertex 41.60413076023352 1245.4431042083709 209.99999999999997
    vertex 58.917041820340025 1268.0057291796472 209.99999999999997
  endloop
endfacet
facet normal 0.0 0.0 1.0
  outer loop
    vertex 51.097848257612974 1275.8249227423812 209.99999999999997
    vertex 58.917041820340025 1268.0057291796472 209.99999999999997
    vertex 75.95066200000062 1294.8951574541302 209.99999999999997
  endloop
endfacet
facet normal 0.0 0.0 1.0
  outer loop
    vertex 75.95066200000062 1294.8951574541302 209.99999999999997
    vertex 58.917041820340025 1268.0057291796472 209.99999999999997
    vertex 81.47966679161405 1285.3186402397514 209.99999999999997
  endloop
endfacet
facet normal 0.0 0.0 1.0
  outer loop
    vertex 75.95066200000062 1294.8951574541302 209.99999999999997
    vertex 81.47966679161405 1285.3186402397514 209.99999999999997
    vertex 104.89237658769697 1306.8832081546839 209.99999999999997
  endloop
endfacet
facet normal 0.0 0.0 1.0
  outer loop
    vertex 104.89237658769697 1306.8832081546839 209.99999999999997
    vertex 81.47966679161405 1285.3186402397514 209.99999999999997
    vertex 107.75440006876097 1296.2019911108828 209.99999999999997
  endloop
endfacet
facet normal 0.0 0.0 1.0
  outer loop
    vertex 104.89237658769697 1306.8832081546839 209.99999999999997
    vertex 107.75440006876097 1296.2019911108828 209.99999999999997
    vertex 135.95066199999997 1310.9721089999987 209.99999999999997
  endloop
endfacet
facet normal 0.0 0.0 1.0
  outer loop
    vertex 135.95066199999997 1310.9721089999987 209.99999999999997
    vertex 107.75440006876097 1296.2019911108828 209.99999999999997
    vertex 135.95066199999673 1299.9140994167444 209.99999999999997
  endloop
endfacet
facet normal 0.0 0.0 1.0
  outer loop
    vertex 135.95066199999997 1310.9721089999987 209.99999999999997
    vertex 135.95066199999673 1299.9140994167444 209.99999999999997
    vertex 164.14692393123138 1296.201991110892 209.99999999999997
  endloop
endfacet
facet normal 0.0 0.0 1.0
  outer loop
    vertex 135.95066199999997 1310.9721089999987 209.99999999999997
    vertex 164.14692393123138 1296.201991110892 209.99999999999997
    vertex 167.0089474123026 1306.8832081546839 209.99999999999997
  endloop
endfacet
facet normal 0.0 0.0 1.0
  outer loop
    vertex 167.0089474123026 1306.8832081546839 209.99999999999997
    vertex 164.14692393123138 1296.201991110892 209.99999999999997
    vertex 190.42165720838193 1285.3186402397564 209.99999999999997
  endloop
endfacet
facet normal 0.0 0.0 1.0
  outer loop
    vertex 167.0089474123026 1306.8832081546839 209.99999999999997
    vertex 190.42165720838193 1285.3186402397564 209.99999999999997
    vertex 195.95066200000113 1294.8951574541302 209.99999999999997
  endloop
endfacet
facet normal 0.0 0.0 1.0
  outer loop
    vertex 195.95066200000113 1294.8951574541302 209.99999999999997
    vertex 190.42165720838193 1285.3186402397564 209.99999999999997
    vertex 212.9842821796563 1268.0057291796509 209.99999999999997
  endloop
endfacet
facet normal 0.0 0.0 1.0
  outer loop
    vertex 195.95066200000113 1294.8951574541302 209.99999999999997
    vertex 212.9842821796563 1268.0057291796509 209.99999999999997
    vertex 200.85131929572438 1291.1347508522877 209.99999999999997
  endloop
endfacet
facet normal 0.0 0.0 1.0
  outer loop
    vertex 200.85131929572438 1291.1347508522877 209.99999999999997
    vertex 212.9842821796563 1268.0057291796509 209.99999999999997
    vertex 220.80347574238624 1275.8249227423812 209.99999999999997
  endloop
endfacet
facet normal 0.0 0.0 1.0
  outer loop
    vertex 220.80347574238624 1275.8249227423812 209.99999999999997
    vertex 212.9842821796563 1268.0057291796509 209.99999999999997
    vertex 230.29719323975993 1245.4431042083795 209.99999999999997
  endloop
endfacet
facet normal 0.0 0.0 1.0
  outer loop
    vertex 220.80347574238624 1275.8249227423812 209.99999999999997
    vertex 230.29719323975993 1245.4431042083795 209.99999999999997
    vertex 239.87371045413525 1250.9721089999964 209.99999999999997
  endloop
endfacet
facet normal 0.0 0.0 1.0
  outer loop
    vertex 239.87371045413525 1250.9721089999964 209.99999999999997
    vertex 230.29719323975993 1245.4431042083795 209.99999999999997
    vertex 241.18054411089025 1219.1683709312304 209.99999999999997
  endloop
endfacet
facet normal 0.0 0.0 1.0
  outer loop
    vertex 239.87371045413525 1250.9721089999964 209.99999999999997
    vertex 241.18054411089025 1219.1683709312304 209.99999999999997
    vertex 251.86176115468925 1222.0303944122961 209.99999999999997
  endloop
endfacet
facet normal 0.0 0.0 1.0
  outer loop
    vertex 251.86176115468925 1222.0303944122961 209.99999999999997
    vertex 241.18054411089025 1219.1683709312304 209.99999999999997
    vertex 244.89265241676821 1190.9721089999907 209.99999999999997
  endloop
endfacet
facet normal 0.0 0.0 1.0
  outer loop
    vertex 251.86176115468925 1222.0303944122961 209.99999999999997
    vertex 244.89265241676821 1190.9721089999907 209.99999999999997
    vertex 251.86176115468925 1159.913823587693 209.99999999999997
  endloop
endfacet
facet normal 0.0 0.0 1.0
  outer loop
    vertex 251.86176115468925 1222.0303944122961 209.99999999999997
    vertex 251.86176115468925 1159.913823587693 209.99999999999997
    vertex 255.95066199999903 1190.972108999995 209.99999999999997
  endloop
endfacet
facet normal -0.8920357733403095 0.3694933154394946 0.2602822870014141
  outer loop
    vertex 241.18054411089025 1162.7758470687552 209.99999999999997
    vertex 187.9121862270665 1160.9721089999953 29.999999999999986
    vertex 230.29719323976101 1136.5011137916076 209.99999999999997
  endloop
endfacet
facet normal 0.12602728897056711 0.9572722985169947 0.2602822870014766
  outer loop
    vertex 135.95066199999673 1082.0301185832172 209.99999999999997
    vertex 135.95066199999997 1130.9721089999948 29.999999999999986
    vertex 107.75440006876097 1085.7422268890805 209.99999999999997
  endloop
endfacet
facet normal -0.3694933154396479 -0.8920357733402435 0.26028228700142214
  outer loop
    vertex 164.14692393123138 1296.201991110892 209.99999999999997
    vertex 151.4798047061513 1248.9276585773391 29.999999999999986
    vertex 190.42165720838193 1285.3186402397564 209.99999999999997
  endloop
endfacet
facet normal 0.8920357733403204 -0.36949331543946673 0.2602822870014159
  outer loop
    vertex 41.60413076023352 1245.4431042083709 209.99999999999997
    vertex 30.720779889104634 1219.1683709312217 209.99999999999997
    vertex 83.98913777293342 1220.9721089999946 29.999999999999986
  endloop
endfacet
facet normal -0.5877789830774045 -0.7660084843693378 0.2602822870014066
  outer loop
    vertex 190.42165720838193 1285.3186402397564 209.99999999999997
    vertex 165.950662 1242.9336332270611 29.999999999999986
    vertex 212.9842821796563 1268.0057291796509 209.99999999999997
  endloop
endfacet
facet normal -0.9238795325113033 0.3826834323650502 0.0
  outer loop
    vertex 122.96028094323343 1198.4721089999948 269.99999999999994
    vertex 121.46177460566413 1194.8543946765324 29.999999999999986
    vertex 121.46177460566413 1194.8543946765324 269.99999999999994
  endloop
endfacet
facet normal -0.9238795325113033 0.3826834323650502 0.0
  outer loop
    vertex 121.46177460566413 1194.8543946765324 29.999999999999986
    vertex 122.96028094323343 1198.4721089999948 269.99999999999994
    vertex 122.96028094323343 1198.4721089999948 29.999999999999986
  endloop
endfacet
facet normal 0.7660084843693108 -0.5877789830774399 0.2602822870014062
  outer loop
    vertex 41.60413076023352 1245.4431042083709 209.99999999999997
    vertex 83.98913777293342 1220.9721089999946 29.999999999999986
    vertex 93.5242551288072 1233.3985158711878 29.999999999999986
  endloop
endfacet
facet normal -0.38268343236520747 0.923879532511238 0.0
  outer loop
    vertex 128.45066199999988 1203.9624900567612 269.99999999999994
    vertex 132.06837632346213 1205.4609963943312 29.999999999999986
    vertex 128.45066199999988 1203.9624900567612 29.999999999999986
  endloop
endfacet
facet normal -0.38268343236520747 0.923879532511238 0.0
  outer loop
    vertex 132.06837632346213 1205.4609963943312 29.999999999999986
    vertex 128.45066199999988 1203.9624900567612 269.99999999999994
    vertex 132.06837632346213 1205.4609963943312 269.99999999999994
  endloop
endfacet
facet normal 0.37537498530422914 -0.9062353804970497 -0.19450207079416357
  outer loop
    vertex 195.95066200000113 1087.0490605458654 209.99999999999997
    vertex 156.65618560820306 1113.6980428968727 10.0
    vertex 175.95066200000133 1121.690076697243 10.0
  endloop
endfacet
facet normal 0.6087614290086819 0.7933533402912651 0.0
  outer loop
    vertex 143.4506619999997 1203.9624900567612 269.99999999999994
    vertex 146.55726371779798 1201.578710717793 29.999999999999986
    vertex 143.4506619999997 1203.9624900567612 29.999999999999986
  endloop
endfacet
facet normal 0.6087614290086819 0.7933533402912651 0.0
  outer loop
    vertex 146.55726371779798 1201.578710717793 29.999999999999986
    vertex 143.4506619999997 1203.9624900567612 269.99999999999994
    vertex 146.55726371779798 1201.578710717793 269.99999999999994
  endloop
endfacet
facet normal 0.12803341702986468 0.9725103539708139 -0.19450207079416676
  outer loop
    vertex 135.95066199999997 1310.9721089999987 209.99999999999997
    vertex 156.65618560820306 1268.246175103123 10.0
    vertex 135.95066200000142 1270.9721089999978 10.0
  endloop
endfacet
facet normal -0.9725103539708135 0.1280334170298669 -0.1945020707941671
  outer loop
    vertex 20.039562845312137 1222.0303944122961 209.99999999999997
    vertex 58.676595896876194 1211.6776326081992 10.0
    vertex 55.950662000001564 1190.9721089999978 10.0
  endloop
endfacet
facet normal -0.5971353686665808 -0.7782019634672016 -0.1945020707941665
  outer loop
    vertex 75.95066200000062 1087.0490605458654 209.99999999999997
    vertex 79.38211950507784 1134.403566505074 10.0
    vertex 95.95066200000149 1121.690076697243 10.0
  endloop
endfacet
facet normal -0.9725103539708044 -0.12803341702992738 -0.1945020707941731
  outer loop
    vertex 15.950661999998026 1190.972108999995 209.99999999999997
    vertex 58.676595896876194 1170.2665853917958 10.0
    vertex 20.039562845312137 1159.9138235876917 209.99999999999997
  endloop
endfacet
facet normal 0.38268343236524016 0.9238795325112247 0.0
  outer loop
    vertex 139.8329476765378 1205.4609963943312 269.99999999999994
    vertex 143.4506619999997 1203.9624900567612 29.999999999999986
    vertex 139.8329476765378 1205.4609963943312 29.999999999999986
  endloop
endfacet
facet normal 0.38268343236524016 0.9238795325112247 0.0
  outer loop
    vertex 143.4506619999997 1203.9624900567612 29.999999999999986
    vertex 139.8329476765378 1205.4609963943312 269.99999999999994
    vertex 143.4506619999997 1203.9624900567612 269.99999999999994
  endloop
endfacet
facet normal 0.9238795325113033 -0.3826834323650502 0.0
  outer loop
    vertex 150.4395493943358 1187.0898233234575 29.999999999999986
    vertex 148.94104305676652 1183.4721089999953 269.99999999999994
    vertex 148.94104305676652 1183.4721089999953 29.999999999999986
  endloop
endfacet
facet normal 0.9238795325113033 -0.3826834323650502 0.0
  outer loop
    vertex 148.94104305676652 1183.4721089999953 269.99999999999994
    vertex 150.4395493943358 1187.0898233234575 29.999999999999986
    vertex 150.4395493943358 1187.0898233234575 269.99999999999994
  endloop
endfacet
facet normal -0.13052619221987416 0.9914448613738339 0.0
  outer loop
    vertex 132.06837632346213 1205.4609963943312 269.99999999999994
    vertex 135.95066199999997 1205.9721089999944 29.999999999999986
    vertex 132.06837632346213 1205.4609963943312 29.999999999999986
  endloop
endfacet
facet normal -0.13052619221987416 0.9914448613738339 0.0
  outer loop
    vertex 135.95066199999997 1205.9721089999944 29.999999999999986
    vertex 132.06837632346213 1205.4609963943312 269.99999999999994
    vertex 135.95066199999997 1205.9721089999944 269.99999999999994
  endloop
endfacet
facet normal 0.7782019634671962 -0.5971353686665841 -0.19450207079417822
  outer loop
    vertex 205.23269430275647 1150.9721089999982 10.0
    vertex 220.80347574238624 1106.1192952576057 209.99999999999997
    vertex 192.519204494925 1134.403566505074 10.0
  endloop
endfacet
facet normal -0.5971353686665807 0.7782019634672029 -0.19450207079416185
  outer loop
    vertex 51.097848257612974 1275.8249227423812 209.99999999999997
    vertex 95.95066200000149 1260.2541413027525 10.0
    vertex 79.38211950507784 1247.5406514949218 10.0
  endloop
endfacet
facet normal -0.9725103539708028 0.1280334170299363 -0.19450207079417592
  outer loop
    vertex 20.039562845312137 1222.0303944122961 209.99999999999997
    vertex 55.950662000001564 1190.9721089999978 10.0
    vertex 15.950661999998026 1190.972108999995 209.99999999999997
  endloop
endfacet
facet normal 0.9062353804970826 0.3753749853041489 -0.1945020707941635
  outer loop
    vertex 239.87371045413525 1250.9721089999964 209.99999999999997
    vertex 251.86176115468925 1222.0303944122961 209.99999999999997
    vertex 205.23269430275647 1230.9721089999982 10.0
  endloop
endfacet
facet normal -0.37537498530422864 0.9062353804970493 -0.19450207079416554
  outer loop
    vertex 75.95066200000062 1294.8951574541302 209.99999999999997
    vertex 115.24513839179977 1268.246175103123 10.0
    vertex 95.95066200000149 1260.2541413027525 10.0
  endloop
endfacet
facet normal 0.7782019634671516 0.5971353686666495 -0.19450207079415527
  outer loop
    vertex 220.80347574238624 1275.8249227423812 209.99999999999997
    vertex 239.87371045413525 1250.9721089999964 209.99999999999997
    vertex 192.519204494925 1247.5406514949218 10.0
  endloop
endfacet
facet normal -0.37537498530439484 -0.9062353804969795 -0.19450207079417003
  outer loop
    vertex 75.95066200000062 1087.0490605458654 209.99999999999997
    vertex 95.95066200000149 1121.690076697243 10.0
    vertex 104.89237658769697 1075.061009845304 209.99999999999997
  endloop
endfacet
facet normal -0.37537498530422675 -0.9062353804970442 -0.19450207079419263
  outer loop
    vertex 104.89237658769697 1075.061009845304 209.99999999999997
    vertex 95.95066200000149 1121.690076697243 10.0
    vertex 115.24513839179977 1113.6980428968727 10.0
  endloop
endfacet
facet normal -0.9725103539708114 -0.1280334170298622 -0.1945020707941814
  outer loop
    vertex 55.950662000001564 1190.9721089999978 10.0
    vertex 58.676595896876194 1170.2665853917958 10.0
    vertex 15.950661999998026 1190.972108999995 209.99999999999997
  endloop
endfacet
facet normal 0.5971353686665809 0.7782019634672025 -0.19450207079416346
  outer loop
    vertex 195.95066200000113 1294.8951574541302 209.99999999999997
    vertex 192.519204494925 1247.5406514949218 10.0
    vertex 175.95066200000133 1260.2541413027525 10.0
  endloop
endfacet
facet normal 0.12803341702995308 0.9725103539708044 -0.19450207079415555
  outer loop
    vertex 167.0089474123026 1306.8832081546839 209.99999999999997
    vertex 156.65618560820306 1268.246175103123 10.0
    vertex 135.95066199999997 1310.9721089999987 209.99999999999997
  endloop
endfacet
facet normal -0.12803341702986498 0.9725103539708162 -0.19450207079415538
  outer loop
    vertex 104.89237658769697 1306.8832081546839 209.99999999999997
    vertex 135.95066200000142 1270.9721089999978 10.0
    vertex 115.24513839179977 1268.246175103123 10.0
  endloop
endfacet
facet normal -0.5971353686666047 0.7782019634671835 -0.19450207079416576
  outer loop
    vertex 75.95066200000062 1294.8951574541302 209.99999999999997
    vertex 95.95066200000149 1260.2541413027525 10.0
    vertex 51.097848257612974 1275.8249227423812 209.99999999999997
  endloop
endfacet
facet normal 0.9725103539708169 0.1280334170298673 -0.1945020707941506
  outer loop
    vertex 213.22472810312664 1211.6776326081992 10.0
    vertex 255.95066199999903 1190.972108999995 209.99999999999997
    vertex 215.95066200000127 1190.9721089999978 10.0
  endloop
endfacet
facet normal -0.37537498530418373 0.9062353804970692 -0.19450207079415927
  outer loop
    vertex 104.89237658769697 1306.8832081546839 209.99999999999997
    vertex 115.24513839179977 1268.246175103123 10.0
    vertex 75.95066200000062 1294.8951574541302 209.99999999999997
  endloop
endfacet
facet normal 0.7782019634671986 -0.5971353686665811 -0.1945020707941778
  outer loop
    vertex 205.23269430275647 1150.9721089999982 10.0
    vertex 239.87371045413525 1130.9721089999948 209.99999999999997
    vertex 220.80347574238624 1106.1192952576057 209.99999999999997
  endloop
endfacet
facet normal 0.9725103539708237 0.12803341702980325 -0.19450207079415877
  outer loop
    vertex 251.86176115468925 1222.0303944122961 209.99999999999997
    vertex 255.95066199999903 1190.972108999995 209.99999999999997
    vertex 213.22472810312664 1211.6776326081992 10.0
  endloop
endfacet
facet normal -0.9062353804970598 -0.3753749853041975 -0.1945020707941774
  outer loop
    vertex 20.039562845312137 1159.9138235876917 209.99999999999997
    vertex 66.66862969724637 1150.9721089999975 10.0
    vertex 32.02761354586651 1130.9721089999948 209.99999999999997
  endloop
endfacet
endsolid arena
